# j.c. saved from ObjMesh class
# points
v -2000.000000 -2000.000000 2000.000000
v -2000.000000 2000.000000 2000.000000
v 2000.000000 -2000.000000 2000.000000
v 2000.000000 2000.000000 2000.000000
v -2000.000000 2000.000000 -2000.000000
v 2000.000000 2000.000000 -2000.000000
v -2000.000000 -2000.000000 -2000.000000
v 2000.000000 -2000.000000 -2000.000000
# UVs
vt 0.246154 0.000621
vt 0.246403 0.246292
vt 0.754038 0.000630
vt 0.753360 0.246674
vt 0.246507 0.753516
vt 0.753681 0.753491
vt 0.246655 0.999645
vt 0.753395 0.999941
vt 0.999442 0.246712
vt 0.999653 0.753329
vt 0.000301 0.753326
vt 0.000576 0.246591
# Normals
vn 0.000000 0.000000 -1.000000
vn 0.000000 -1.000000 0.000000
vn 0.000000 0.000000 1.000000
vn -1.000000 0.000000 0.000000
vn 1.000000 0.000000 0.000000
g pCube1
mtllib skybox.mtl
usemtl lambert2SG
# Faces
f 1/1/1 2/2/1 3/3/1 
f 3/3/1 2/2/1 4/4/1 
f 2/2/2 5/5/2 4/4/2 
f 4/4/2 5/5/2 6/6/2 
f 5/5/3 7/7/3 6/6/3 
f 6/6/3 7/7/3 8/8/3 
f 3/9/4 4/4/4 8/10/4 
f 8/10/4 4/4/4 6/6/4 
f 7/11/5 5/5/5 1/12/5 
f 1/12/5 5/5/5 2/2/5 
f 1/1/1 2/2/1 3/3/1 
f 3/3/1 2/2/1 4/4/1 
f 2/2/2 5/5/2 4/4/2 
f 4/4/2 5/5/2 6/6/2 
f 5/5/3 7/7/3 6/6/3 
f 6/6/3 7/7/3 8/8/3 
f 3/9/4 4/4/4 8/10/4 
f 8/10/4 4/4/4 6/6/4 
f 7/11/5 5/5/5 1/12/5 
f 1/12/5 5/5/5 2/2/5 
