# This file uses centimeters as units for non-parametric coordinates.

mtllib arch.mtl
v -38.243142 0.064923 64.842143
v 37.541523 0.064923 64.842143
v 37.541523 69.549018 62.055525
v -38.243142 69.549018 62.055525
v 37.541523 0.064923 -77.276372
v -38.243142 0.064923 -77.276372
v -38.243142 69.549018 -73.932454
v 37.541523 69.549018 -73.932454
v -38.243142 86.920039 -68.359168
v 37.541523 86.920039 -68.359168
v -38.243142 102.509425 -56.655274
v 37.541523 102.509425 -56.655274
v 37.541523 110.972233 -33.247522
v -38.243142 110.526833 -33.247522
v 37.541523 113.644726 -5.938443
v -38.243142 113.644726 -5.938443
v 37.541523 110.972233 20.813275
v -38.243142 110.526833 20.813275
v 37.541523 102.509425 44.221039
v -38.243142 102.509425 44.221039
v -38.243142 88.256309 56.482221
v 37.541523 88.256309 56.482221
v 37.541523 0.064923 29.173179
v -38.243142 0.064923 29.173179
v -38.243142 58.413723 29.173179
v 37.541523 58.413723 29.173179
v -38.243142 0.064923 -41.607414
v 37.541523 0.064923 -41.607414
v 37.541523 56.632094 -38.820795
v -38.243142 56.632094 -38.820795
v 37.541523 64.649497 -37.148812
v -38.243142 64.649497 -37.148812
v 37.541523 71.776106 -31.575539
v -38.243142 71.776106 -31.575539
v 37.541523 76.230221 -19.871669
v -38.243142 75.784792 -19.871669
v 37.541523 77.566444 -5.938443
v -38.243142 77.566444 -5.938443
v 37.541523 76.230221 7.437410
v -38.243142 75.784792 7.437410
v 37.541523 71.776106 19.141268
v -38.243142 71.776106 19.141268
v 37.541523 65.985743 26.386548
v -38.243142 65.540332 26.386548
vt -0.007813 0.007813
vt -0.007813 0.246094
vt -0.097656 0.246094
vt -0.097656 0.007813
vt -0.984375 0.246094
vt -0.984375 0.007813
vt -0.878906 0.007813
vt -0.878906 0.246094
vt -0.781250 0.007813
vt -0.781250 0.246094
vt -0.679688 0.007813
vt -0.679688 0.246094
vt -0.574219 0.246094
vt -0.574219 0.007813
vt -0.480469 0.246094
vt -0.480469 0.007813
vt -0.382813 0.246094
vt -0.382813 0.007813
vt -0.289063 0.246094
vt -0.289063 0.007813
vt -0.195313 0.007813
vt -0.195313 0.246094
vt -0.570313 0.980469
vt -0.417969 0.980469
vt -0.417969 0.652344
vt -0.570313 0.648438
vt -0.570313 0.660156
vt -0.417969 0.660156
vt -0.570313 0.613281
vt -0.417969 0.613281
vt -0.570313 0.574219
vt -0.417969 0.574219
vt -0.570313 0.550781
vt -0.417969 0.550781
vt -0.570313 0.542969
vt -0.417969 0.542969
vt -0.570313 0.609375
vt -0.417969 0.609375
vt -0.417969 0.980469
vt -0.570313 0.980469
vt -0.417969 0.980469
vt -0.570313 0.550781
vt -0.417969 0.550781
vt -0.417969 0.550781
vt -0.570313 0.550781
vt -0.570313 0.574219
vt -0.417969 0.574219
vt -0.570313 0.550781
vt -0.417969 0.574219
vt -0.417969 0.550781
vt -0.417969 0.574219
vt -0.417969 0.574219
vt -0.570313 0.574219
vn 0.000000 0.040072 0.999197
vn 0.000000 0.040072 0.999197
vn 0.000000 0.122735 0.992439
vn 0.000000 0.040072 0.999197
vn 0.000000 0.122735 0.992439
vn 0.000000 0.205120 0.978737
vn 0.000000 0.048069 -0.998844
vn 0.000000 0.048069 -0.998844
vn 0.000000 0.134909 -0.990858
vn 0.000000 0.048069 -0.998844
vn 0.000000 0.134909 -0.990858
vn 0.000000 0.221380 -0.975188
vn 0.000000 0.221380 -0.975188
vn 0.000000 0.134909 -0.990858
vn 0.000000 0.408834 -0.912609
vn 0.000000 0.221380 -0.975188
vn 0.000000 0.408834 -0.912609
vn 0.000000 0.508356 -0.861147
vn 0.000000 0.508356 -0.861147
vn 0.000000 0.408834 -0.912609
vn -0.001452 0.806470 -0.591273
vn 0.000000 0.508356 -0.861147
vn -0.001452 0.806470 -0.591273
vn 0.000000 0.803965 -0.594676
vn -0.003828 0.966813 -0.255458
vn 0.000000 0.803965 -0.594676
vn -0.001452 0.806470 -0.591273
vn -0.003828 0.966813 -0.255458
vn -0.001452 0.806470 -0.591273
vn -0.003824 0.983789 -0.179291
vn -0.001959 0.999302 -0.037316
vn -0.003828 0.966813 -0.255458
vn -0.003824 0.983789 -0.179291
vn -0.001959 0.999302 -0.037316
vn -0.003824 0.983789 -0.179291
vn -0.001957 0.999417 0.034098
vn -0.003812 0.982497 0.186241
vn -0.001959 0.999302 -0.037316
vn -0.001957 0.999417 0.034098
vn -0.003812 0.982497 0.186241
vn -0.001957 0.999417 0.034098
vn -0.003809 0.965231 0.261372
vn -0.001430 0.825660 0.564166
vn -0.003812 0.982497 0.186241
vn -0.003809 0.965231 0.261372
vn -0.001430 0.825660 0.564166
vn -0.003809 0.965231 0.261372
vn 0.000000 0.828044 0.560662
vn 0.000000 0.540523 0.841329
vn 0.000000 0.415873 0.909423
vn -0.001430 0.825660 0.564166
vn 0.000000 0.540523 0.841329
vn -0.001430 0.825660 0.564166
vn 0.000000 0.828044 0.560662
vn 0.000000 0.205120 0.978737
vn 0.000000 0.122735 0.992439
vn 0.000000 0.415873 0.909423
vn 0.000000 0.205120 0.978737
vn 0.000000 0.415873 0.909423
vn 0.000000 0.540523 0.841329
vn 0.000000 0.000000 -1.000000
vn 0.000000 0.000000 -1.000000
vn 0.000000 -0.123285 -0.992371
vn 0.000000 0.000000 -1.000000
vn 0.000000 -0.123285 -0.992371
vn 0.000687 -0.240016 -0.970769
vn 0.000000 -0.049202 0.998789
vn 0.000000 -0.049202 0.998789
vn 0.000000 -0.101127 0.994874
vn 0.000000 -0.049202 0.998789
vn 0.000000 -0.101127 0.994874
vn 0.000000 -0.152917 0.988239
vn 0.000000 -0.152917 0.988239
vn 0.000000 -0.101127 0.994874
vn 0.000000 -0.349547 0.936919
vn 0.000000 -0.152917 0.988239
vn 0.000000 -0.349547 0.936919
vn 0.000000 -0.490097 0.871668
vn 0.000000 -0.490097 0.871668
vn 0.000000 -0.349547 0.936919
vn 0.001429 -0.809802 0.586702
vn 0.000000 -0.490097 0.871668
vn 0.001429 -0.809802 0.586702
vn 0.000000 -0.814723 0.579851
vn 0.001429 -0.809802 0.586702
vn 0.003802 -0.980985 0.194045
vn 0.003795 -0.962763 0.270321
vn 0.001429 -0.809802 0.586702
vn 0.003795 -0.962763 0.270321
vn 0.000000 -0.814723 0.579851
vn 0.003802 -0.980985 0.194045
vn 0.001959 -0.998960 -0.045554
vn 0.001956 -0.999539 0.030291
vn 0.003802 -0.980985 0.194045
vn 0.001956 -0.999539 0.030291
vn 0.003795 -0.962763 0.270321
vn 0.001959 -0.998960 -0.045554
vn 0.003829 -0.965195 -0.261502
vn 0.003823 -0.982520 -0.186116
vn 0.001959 -0.998960 -0.045554
vn 0.003823 -0.982520 -0.186116
vn 0.001956 -0.999539 0.030291
vn 0.003829 -0.965195 -0.261502
vn 0.000000 -0.868343 -0.495965
vn 0.002542 -0.868000 -0.496558
vn 0.003829 -0.965195 -0.261502
vn 0.002542 -0.868000 -0.496558
vn 0.003823 -0.982520 -0.186116
vn 0.002230 -0.647975 -0.761659
vn 0.002222 -0.502905 -0.864339
vn 0.002542 -0.868000 -0.496558
vn 0.002230 -0.647975 -0.761659
vn 0.002542 -0.868000 -0.496558
vn 0.000000 -0.868343 -0.495965
vn 0.000687 -0.240016 -0.970769
vn 0.000000 -0.123285 -0.992371
vn 0.002222 -0.502905 -0.864339
vn 0.000687 -0.240016 -0.970769
vn 0.002222 -0.502905 -0.864339
vn 0.002230 -0.647975 -0.761659
g arch1:Mesh
usemtl arch1:arch1
f 1/1/1 2/2/2 3/3/3
f 1/1/4 3/3/5 4/4/6
f 5/5/7 6/6/8 7/7/9
f 5/5/10 7/7/11 8/8/12
f 8/8/13 7/7/14 9/9/15
f 8/8/16 9/9/17 10/10/18
f 10/10/19 9/9/20 11/11/21
f 10/10/22 11/11/23 12/12/24
f 13/13/25 12/12/26 11/11/27
f 13/13/28 11/11/29 14/14/30
f 15/15/31 13/13/32 14/14/33
f 15/15/34 14/14/35 16/16/36
f 17/17/37 15/15/38 16/16/39
f 17/17/40 16/16/41 18/18/42
f 19/19/43 17/17/44 18/18/45
f 19/19/46 18/18/47 20/20/48
f 21/21/49 22/22/50 19/19/51
f 21/21/52 19/19/53 20/20/54
f 4/4/55 3/3/56 22/22/57
f 4/4/58 22/22/59 21/21/60
f 23/23/61 24/24/62 25/25/63
f 23/23/64 25/25/65 26/26/66
f 27/39/67 28/40/68 29/27/69
f 27/41/70 29/27/71 30/28/72
f 30/28/73 29/27/74 31/29/75
f 30/28/76 31/29/77 32/30/78
f 32/30/79 31/29/80 33/31/81
f 32/30/82 33/31/83 34/32/84
f 33/31/85 35/33/86 36/34/87
f 33/31/88 36/34/89 34/32/90
f 35/33/91 37/35/92 38/36/93
f 35/33/94 38/36/95 36/34/96
f 37/35/97 39/42/98 40/43/99
f 37/35/100 40/44/101 38/36/102
f 39/45/103 41/46/104 42/47/105
f 39/48/106 42/49/107 40/50/108
f 43/37/109 44/38/110 42/51/111
f 43/37/112 42/52/113 41/53/114
f 26/26/115 25/25/116 44/38/117
f 26/26/118 44/38/119 43/37/120
v 37.541523 0.064923 -77.276372
v 37.541523 69.549018 -73.932454
v 37.541523 86.920039 -68.359168
v 37.541523 102.509425 -56.655274
v 37.541523 0.064923 -41.607414
v 37.541523 56.632094 -38.820795
v 37.541523 64.649497 -37.148812
v 37.541523 110.972233 -33.247522
v 37.541523 71.776106 -31.575539
v 37.541523 76.230221 -19.871669
v 37.541523 77.566444 -5.938443
v 37.541523 113.644726 -5.938443
v 37.541523 76.230221 7.437410
v 37.541523 71.776106 19.141268
v 37.541523 110.972233 20.813275
v 37.541523 65.985743 26.386548
v 37.541523 58.413723 29.173179
v 37.541523 102.509425 44.221039
v 37.541523 0.064923 29.173179
v 37.541523 88.256309 56.482221
v 37.541523 69.549018 62.055525
v 37.541523 0.064923 64.842143
vt -0.984375 0.980469
vt -0.960938 0.546875
vt -0.925781 0.437500
vt -0.839844 0.339844
vt -0.738281 0.980469
vt -0.722656 0.628906
vt -0.707031 0.574219
vt -0.683594 0.289063
vt -0.667969 0.531250
vt -0.589844 0.503906
vt -0.496094 0.496094
vt -0.496094 0.269531
vt -0.402344 0.503906
vt -0.320313 0.531250
vt -0.308594 0.289063
vt -0.269531 0.570313
vt -0.250000 0.617188
vt -0.148438 0.339844
vt -0.250000 0.980469
vt -0.062500 0.429688
vt -0.023438 0.546875
vt -0.003906 0.980469
vn 1.000000 0.000000 0.000000
vn 1.000000 0.000000 0.000000
vn 1.000000 0.000000 0.000000
vn 1.000000 0.000000 0.000000
vn 1.000000 0.000000 0.000000
vn 1.000000 0.000000 0.000000
vn 1.000000 0.000000 0.000000
vn 1.000000 0.000000 0.000000
vn 1.000000 0.000000 0.000000
vn 1.000000 0.000000 0.000000
vn 1.000000 0.000000 0.000000
vn 1.000000 0.000000 0.000000
vn 1.000000 0.000000 0.000000
vn 1.000000 0.000000 0.000000
vn 1.000000 0.000000 0.000000
vn 1.000000 0.000000 0.000000
vn 1.000000 0.000000 0.000000
vn 1.000000 0.000000 0.000000
vn 1.000000 0.000000 0.000000
vn 1.000000 0.000000 0.000000
vn 1.000000 0.000000 0.000000
vn 1.000000 0.000000 0.000000
vn 1.000000 0.000000 0.000000
vn 1.000000 0.000000 0.000000
vn 1.000000 0.000000 0.000000
vn 1.000000 0.000000 0.000000
vn 1.000000 0.000000 0.000000
vn 1.000000 0.000000 0.000000
vn 1.000000 0.000000 0.000000
vn 1.000000 0.000000 0.000000
vn 1.000000 0.000000 0.000000
vn 1.000000 0.000000 0.000000
vn 1.000000 0.000000 0.000000
vn 1.000000 0.000000 0.000000
vn 1.000000 0.000000 0.000000
vn 1.000000 0.000000 0.000000
vn 1.000000 0.000000 0.000000
vn 1.000000 0.000000 0.000000
vn 1.000000 0.000000 0.000000
vn 1.000000 0.000000 0.000000
vn 1.000000 0.000000 0.000000
vn 1.000000 0.000000 0.000000
vn 1.000000 0.000000 0.000000
vn 1.000000 0.000000 0.000000
vn 1.000000 0.000000 0.000000
vn 1.000000 0.000000 0.000000
vn 1.000000 0.000000 0.000000
vn 1.000000 0.000000 0.000000
vn 1.000000 0.000000 0.000000
vn 1.000000 0.000000 0.000000
vn 1.000000 0.000000 0.000000
vn 1.000000 0.000000 0.000000
vn 1.000000 0.000000 0.000000
vn 1.000000 0.000000 0.000000
vn 1.000000 0.000000 0.000000
vn 1.000000 0.000000 0.000000
vn 1.000000 0.000000 0.000000
vn 1.000000 0.000000 0.000000
vn 1.000000 0.000000 0.000000
vn 1.000000 0.000000 0.000000
g arch2:Mesh
usemtl arch2:arch2
f 45/54/121 46/55/122 47/56/123
f 45/54/124 47/56/125 48/57/126
f 45/54/127 48/57/128 49/58/129
f 49/58/130 48/57/131 50/59/132
f 50/59/133 48/57/134 51/60/135
f 51/60/136 48/57/137 52/61/138
f 51/60/139 52/61/140 53/62/141
f 53/62/142 52/61/143 54/63/144
f 54/63/145 52/61/146 55/64/147
f 55/64/148 52/61/149 56/65/150
f 55/64/151 56/65/152 57/66/153
f 57/66/154 56/65/155 58/67/156
f 58/67/157 56/65/158 59/68/159
f 58/67/160 59/68/161 60/69/162
f 60/69/163 59/68/164 61/70/165
f 61/70/166 59/68/167 62/71/168
f 63/72/169 61/70/170 62/71/171
f 63/72/172 62/71/173 64/73/174
f 63/72/175 64/73/176 65/74/177
f 63/72/178 65/74/179 66/75/180
v 0.976700 83.667080 49.449647
v -35.395037 -4.043561 49.449647
v 0.976700 83.667080 -55.457618
v -35.395037 -4.043561 -55.457618
vt 0.556316 0.540027
vt 0.595556 0.540027
vt 0.556316 0.586362
vt 0.595556 0.586362
vn 0.923728 -0.383050 0.000000
vn 0.923728 -0.383050 0.000000
vn 0.923728 -0.383050 0.000000
vn 0.923728 -0.383050 0.000000
g pPlane1
usemtl lambert3SG
f 67/76/181 68/77/182 70/79/183 69/78/184
