# This file uses centimeters as units for non-parametric coordinates.

mtllib fruit4.mtl
v 0.780821 33.431388 12.255351
v 13.016669 25.165814 3.158519
v 4.749233 27.953682 -6.501790
v -8.809403 26.952928 -3.033986
v -8.809403 23.414433 9.227214
v 4.749233 22.342214 12.942698
v 6.996752 15.605981 -16.471608
v 20.221737 14.399410 -0.399587
v -14.718299 15.146360 -10.348897
v -14.718299 13.642900 9.677363
v 6.996752 13.183229 12.797908
v 20.221737 3.086773 3.137736
v 6.996752 -3.200133 -10.415700
v -14.718299 -0.805077 -5.252431
v -14.718299 7.028617 11.635493
v 6.996752 7.708074 13.796550
v 4.710952 -13.570881 6.557719
v 12.874523 -7.789769 12.437983
v -8.677257 -11.495655 8.668528
v -8.677257 -4.158095 16.131999
v 4.710952 -1.934597 18.393687
v 0.792486 -11.982037 24.968463
v 2.801189 33.468662 11.036952
v -0.024757 55.106783 7.454173
v 4.798373 54.957834 6.133616
v 3.498331 55.524789 10.859065
v 22.259720 33.554491 9.682719
v 18.018587 33.186037 -0.913549
v 22.190050 34.481195 9.641627
v 18.090357 34.101692 -0.914403
v 6.229373 32.958746 -0.612920
v 6.301142 33.874399 -0.613774
v 3.170807 33.208595 10.206859
v 3.242576 34.124248 10.206004
v 13.061593 33.590965 16.621982
v 13.133362 34.506620 16.621119
v 0.890577 32.696643 10.514674
v -2.870286 34.824140 -0.003469
v 1.227310 33.361286 10.594523
v -2.515611 35.717699 0.076167
v -13.894290 38.913061 0.413813
v -13.539617 39.806619 0.493434
v -16.952856 39.162912 11.233592
v -16.598183 40.056470 11.313212
v -7.827280 35.229068 17.532069
v -7.472605 36.122625 17.611697
vt -0.203125 0.296875
vt -0.203125 0.382813
vt -0.390625 0.382813
vt -0.687500 0.250000
vt -0.433594 0.382813
vt -0.593750 0.382813
vt -0.773438 0.382813
vt -0.921875 0.382813
vt -0.074219 0.382813
vt -0.390625 0.527344
vt -0.203125 0.527344
vt -0.539063 0.527344
vt -0.812500 0.527344
vt -0.984375 0.527344
vt -0.015625 0.527344
vt -0.203125 0.703125
vt -0.390625 0.703125
vt -0.539063 0.703125
vt -0.812500 0.703125
vt -0.984375 0.703125
vt -0.015625 0.703125
vt -0.375000 0.851563
vt -0.203125 0.851563
vt -0.414063 0.851563
vt -0.593750 0.851563
vt -0.773438 0.851563
vt -0.929688 0.851563
vt -0.078125 0.851563
vt -0.203125 0.964844
vt -0.679688 0.984375
vt -0.121094 0.269531
vt -0.121094 0.039063
vt -0.082031 0.039063
vt -0.156250 0.039063
vt -0.050781 0.269531
vt -0.039063 0.039063
vt -0.457031 0.222656
vt -0.558594 0.144531
vt -0.457031 0.218750
vt -0.558594 0.144531
vt -0.308594 0.199219
vt -0.308594 0.199219
vt -0.339844 0.105469
vt -0.339844 0.105469
vt -0.218750 0.199219
vt -0.218750 0.199219
vt -0.218750 0.199219
vt -0.308594 0.199219
vt -0.218750 0.199219
vt -0.191406 0.105469
vt -0.218750 0.199219
vt -0.191406 0.105469
vt -0.359375 0.144531
vt -0.359375 0.144531
vt -0.359375 0.144531
vt -0.558594 0.144531
vt -0.519531 0.023438
vt -0.398438 0.023438
vt -0.359375 0.144531
vt -0.339844 0.105469
vt -0.265625 0.050781
vt -0.675781 0.035156
vt -0.761719 0.097656
vt -0.675781 0.031250
vt -0.761719 0.093750
vt -0.937500 0.015625
vt -0.937500 0.019531
vt -0.976563 0.132813
vt -0.976563 0.128906
vt -0.824219 0.015625
vt -0.824219 0.019531
vt -0.789063 0.128906
vt -0.789063 0.132813
vt -0.593750 0.097656
vt -0.593750 0.093750
vt -0.882813 0.203125
vt -0.726563 0.199219
vt -0.625000 0.199219
vn 0.003141 0.894254 0.447550
vn 0.765630 0.601207 0.228825
vn 0.232837 0.792551 -0.563604
vn 0.003141 0.894254 0.447550
vn 0.232837 0.792551 -0.563604
vn -0.604614 0.762817 -0.229243
vn 0.003141 0.894254 0.447550
vn -0.604614 0.762817 -0.229243
vn -0.729629 0.413918 0.544346
vn 0.003141 0.894254 0.447550
vn -0.729629 0.413918 0.544346
vn 0.274211 0.154080 0.949246
vn 0.003141 0.894254 0.447550
vn 0.274211 0.154080 0.949246
vn 0.765630 0.601207 0.228825
vn 0.177940 0.085120 -0.980353
vn 0.232837 0.792551 -0.563604
vn 0.963745 0.265761 -0.023795
vn 0.963745 0.265761 -0.023795
vn 0.232837 0.792551 -0.563604
vn 0.765630 0.601207 0.228825
vn 0.232837 0.792551 -0.563604
vn 0.177940 0.085120 -0.980353
vn -0.766511 0.393308 -0.507711
vn 0.232837 0.792551 -0.563604
vn -0.766511 0.393308 -0.507711
vn -0.604614 0.762817 -0.229243
vn -0.604614 0.762817 -0.229243
vn -0.766511 0.393308 -0.507711
vn -0.729629 0.413918 0.544346
vn -0.729629 0.413918 0.544346
vn -0.766511 0.393308 -0.507711
vn -0.650778 0.209248 0.729865
vn 0.274211 0.154080 0.949246
vn -0.729629 0.413918 0.544346
vn -0.650778 0.209248 0.729865
vn 0.274211 0.154080 0.949246
vn -0.650778 0.209248 0.729865
vn 0.385315 0.141874 0.911814
vn 0.963745 0.265761 -0.023795
vn 0.765630 0.601207 0.228825
vn 0.274211 0.154080 0.949246
vn 0.963745 0.265761 -0.023795
vn 0.274211 0.154080 0.949246
vn 0.385315 0.141874 0.911814
vn 0.929410 -0.164682 0.330268
vn 0.409141 -0.534054 -0.739858
vn 0.963745 0.265761 -0.023795
vn 0.963745 0.265761 -0.023795
vn 0.409141 -0.534054 -0.739858
vn 0.177940 0.085120 -0.980353
vn -0.782323 -0.470430 -0.408247
vn -0.766511 0.393308 -0.507711
vn 0.177940 0.085120 -0.980353
vn -0.782323 -0.470430 -0.408247
vn 0.177940 0.085120 -0.980353
vn 0.409141 -0.534054 -0.739858
vn -0.782323 -0.470430 -0.408247
vn -0.605150 0.155451 0.780787
vn -0.650778 0.209248 0.729865
vn -0.782323 -0.470430 -0.408247
vn -0.650778 0.209248 0.729865
vn -0.766511 0.393308 -0.507711
vn -0.650778 0.209248 0.729865
vn -0.605150 0.155451 0.780787
vn 0.210739 0.270559 0.939355
vn -0.650778 0.209248 0.729865
vn 0.210739 0.270559 0.939355
vn 0.385315 0.141874 0.911814
vn 0.210739 0.270559 0.939355
vn 0.929410 -0.164682 0.330268
vn 0.385315 0.141874 0.911814
vn 0.385315 0.141874 0.911814
vn 0.929410 -0.164682 0.330268
vn 0.963745 0.265761 -0.023795
vn 0.238921 -0.931476 -0.274352
vn 0.409141 -0.534054 -0.739858
vn 0.929410 -0.164682 0.330268
vn 0.238921 -0.931476 -0.274352
vn 0.929410 -0.164682 0.330268
vn 0.812828 -0.378993 0.442352
vn 0.409141 -0.534054 -0.739858
vn 0.238921 -0.931476 -0.274352
vn -0.782323 -0.470430 -0.408247
vn -0.782323 -0.470430 -0.408247
vn 0.238921 -0.931476 -0.274352
vn -0.640494 -0.765777 0.057897
vn -0.782323 -0.470430 -0.408247
vn -0.640494 -0.765777 0.057897
vn -0.763398 -0.056411 0.643460
vn -0.782323 -0.470430 -0.408247
vn -0.763398 -0.056411 0.643460
vn -0.605150 0.155451 0.780787
vn -0.763398 -0.056411 0.643460
vn 0.271747 0.353744 0.894996
vn -0.605150 0.155451 0.780787
vn -0.605150 0.155451 0.780787
vn 0.271747 0.353744 0.894996
vn 0.210739 0.270559 0.939355
vn 0.812828 -0.378993 0.442352
vn 0.929410 -0.164682 0.330268
vn 0.271747 0.353744 0.894996
vn 0.271747 0.353744 0.894996
vn 0.929410 -0.164682 0.330268
vn 0.210739 0.270559 0.939355
vn 0.812828 -0.378993 0.442352
vn -0.001044 -0.569457 0.822021
vn 0.238921 -0.931476 -0.274352
vn 0.238921 -0.931476 -0.274352
vn -0.001044 -0.569457 0.822021
vn -0.640494 -0.765777 0.057897
vn -0.640494 -0.765777 0.057897
vn -0.001044 -0.569457 0.822021
vn -0.763398 -0.056411 0.643460
vn -0.763398 -0.056411 0.643460
vn -0.001044 -0.569457 0.822021
vn 0.271747 0.353744 0.894996
vn 0.271747 0.353744 0.894996
vn -0.001044 -0.569457 0.822021
vn 0.812828 -0.378993 0.442352
vn 0.009424 -0.978606 0.205529
vn -0.730865 0.629444 -0.263889
vn 0.531182 0.590207 -0.607867
vn 0.009424 -0.978606 0.205529
vn 0.196866 0.738787 0.644544
vn -0.730865 0.629444 -0.263889
vn 0.009424 -0.978606 0.205529
vn 0.531182 0.590207 -0.607867
vn 0.196866 0.738787 0.644544
vn -0.730865 0.629444 -0.263889
vn 0.196866 0.738787 0.644544
vn 0.531182 0.590207 -0.607867
vn 0.567000 -0.752132 0.335869
vn 0.681987 -0.375180 -0.627800
vn 0.618260 0.785941 -0.007206
vn 0.618260 0.785941 -0.007206
vn 0.681987 -0.375180 -0.627800
vn 0.318242 0.343687 -0.883517
vn -0.528599 -0.505719 -0.681785
vn -0.383847 0.777499 -0.498154
vn 0.318242 0.343687 -0.883517
vn -0.528599 -0.505719 -0.681785
vn 0.318242 0.343687 -0.883517
vn 0.681987 -0.375180 -0.627800
vn -0.528599 -0.505719 -0.681785
vn -0.594893 -0.762976 0.252925
vn -0.775730 0.569099 0.272708
vn -0.528599 -0.505719 -0.681785
vn -0.775730 0.569099 0.272708
vn -0.383847 0.777499 -0.498154
vn -0.775730 0.569099 0.272708
vn -0.594893 -0.762976 0.252925
vn -0.172453 -0.352383 0.919830
vn -0.775730 0.569099 0.272708
vn -0.172453 -0.352383 0.919830
vn 0.238696 0.398322 0.885643
vn -0.172453 -0.352383 0.919830
vn 0.567000 -0.752132 0.335869
vn 0.238696 0.398322 0.885643
vn 0.238696 0.398322 0.885643
vn 0.567000 -0.752132 0.335869
vn 0.618260 0.785941 -0.007206
vn 0.318242 0.343687 -0.883517
vn -0.383847 0.777499 -0.498154
vn 0.618260 0.785941 -0.007206
vn 0.618260 0.785941 -0.007206
vn -0.383847 0.777499 -0.498154
vn -0.775730 0.569099 0.272708
vn 0.618260 0.785941 -0.007206
vn -0.775730 0.569099 0.272708
vn 0.238696 0.398322 0.885643
vn -0.528599 -0.505719 -0.681785
vn 0.681987 -0.375180 -0.627800
vn 0.567000 -0.752132 0.335869
vn -0.528599 -0.505719 -0.681785
vn 0.567000 -0.752132 0.335869
vn -0.594893 -0.762976 0.252925
vn -0.594893 -0.762976 0.252925
vn 0.567000 -0.752132 0.335869
vn -0.172453 -0.352383 0.919830
vn 0.215963 -0.947202 0.237000
vn 0.496069 -0.560685 -0.662984
vn 0.880613 0.468883 0.068334
vn 0.880613 0.468883 0.068334
vn 0.496069 -0.560685 -0.662984
vn 0.447277 0.296030 -0.843984
vn -0.661162 -0.250286 -0.707263
vn -0.073902 0.903015 -0.423204
vn 0.447277 0.296030 -0.843984
vn -0.661162 -0.250286 -0.707263
vn 0.447277 0.296030 -0.843984
vn 0.496069 -0.560685 -0.662984
vn -0.661162 -0.250286 -0.707263
vn -0.827079 -0.537342 0.164938
vn -0.556062 0.756478 0.344292
vn -0.661162 -0.250286 -0.707263
vn -0.556062 0.756478 0.344292
vn -0.073902 0.903015 -0.423204
vn -0.556062 0.756478 0.344292
vn -0.827079 -0.537342 0.164938
vn -0.311567 -0.354582 0.881588
vn -0.556062 0.756478 0.344292
vn -0.311567 -0.354582 0.881588
vn 0.335224 0.158569 0.928698
vn -0.311567 -0.354582 0.881588
vn 0.215963 -0.947202 0.237000
vn 0.335224 0.158569 0.928698
vn 0.335224 0.158569 0.928698
vn 0.215963 -0.947202 0.237000
vn 0.880613 0.468883 0.068334
vn 0.447277 0.296030 -0.843984
vn -0.073902 0.903015 -0.423204
vn 0.880613 0.468883 0.068334
vn 0.880613 0.468883 0.068334
vn -0.073902 0.903015 -0.423204
vn -0.556062 0.756478 0.344292
vn 0.880613 0.468883 0.068334
vn -0.556062 0.756478 0.344292
vn 0.335224 0.158569 0.928698
vn -0.661162 -0.250286 -0.707263
vn 0.496069 -0.560685 -0.662984
vn 0.215963 -0.947202 0.237000
vn -0.661162 -0.250286 -0.707263
vn 0.215963 -0.947202 0.237000
vn -0.827079 -0.537342 0.164938
vn -0.827079 -0.537342 0.164938
vn 0.215963 -0.947202 0.237000
vn -0.311567 -0.354582 0.881588
g polySurface3
usemtl lambert4SG
f 1/1/1 2/2/2 3/3/3
f 1/4/4 3/5/5 4/6/6
f 1/4/7 4/6/8 5/7/9
f 1/4/10 5/7/11 6/8/12
f 1/1/13 6/9/14 2/2/15
f 7/10/16 3/3/17 8/11/18
f 8/11/19 3/3/20 2/2/21
f 3/5/22 7/10/23 9/12/24
f 3/5/25 9/12/26 4/6/27
f 4/6/28 9/12/29 5/7/30
f 5/7/31 9/12/32 10/13/33
f 6/8/34 5/7/35 10/13/36
f 6/8/37 10/13/38 11/14/39
f 8/11/40 2/2/41 6/9/42
f 8/11/43 6/9/44 11/15/45
f 12/16/46 13/17/47 8/11/48
f 8/11/49 13/17/50 7/10/51
f 14/18/52 9/12/53 7/10/54
f 14/18/55 7/10/56 13/17/57
f 14/18/58 15/19/59 10/13/60
f 14/18/61 10/13/62 9/12/63
f 10/13/64 15/19/65 16/20/66
f 10/13/67 16/20/68 11/14/69
f 16/21/70 12/16/71 11/15/72
f 11/15/73 12/16/74 8/11/75
f 17/22/76 13/17/77 12/16/78
f 17/22/79 12/16/80 18/23/81
f 13/17/82 17/24/83 14/18/84
f 14/18/85 17/24/86 19/25/87
f 14/18/88 19/25/89 20/26/90
f 14/18/91 20/26/92 15/19/93
f 20/26/94 21/27/95 15/19/96
f 15/19/97 21/27/98 16/20/99
f 18/23/100 12/16/101 21/28/102
f 21/28/103 12/16/104 16/21/105
f 18/23/106 22/29/107 17/22/108
f 17/24/109 22/30/110 19/25/111
f 19/25/112 22/30/113 20/26/114
f 20/26/115 22/30/116 21/27/117
f 21/28/118 22/29/119 18/23/120
usemtl fruit_stem2:fruit_stem
f 23/31/121 24/32/122 25/33/123
f 23/31/124 26/34/125 24/32/126
f 23/35/127 25/33/128 26/36/129
f 24/32/130 26/34/131 25/33/132
f 27/37/133 28/38/134 29/39/135
f 29/39/136 28/38/137 30/40/138
f 31/41/139 32/42/140 30/43/141
f 31/41/142 30/43/143 28/44/144
f 31/41/145 33/45/146 34/46/147
f 31/41/148 34/47/149 32/48/150
f 34/49/151 33/45/152 35/50/153
f 34/51/154 35/50/155 36/52/156
f 35/53/157 27/37/158 36/54/159
f 36/55/160 27/37/161 29/39/162
f 30/56/163 32/57/164 29/39/165
f 29/39/166 32/57/167 34/58/168
f 29/39/169 34/58/170 36/59/171
f 31/41/172 28/60/173 27/61/174
f 31/41/175 27/61/176 33/45/177
f 33/45/178 27/61/179 35/50/180
f 37/62/181 38/63/182 39/64/183
f 39/64/184 38/63/185 40/65/186
f 41/66/187 42/67/188 40/68/189
f 41/66/190 40/68/191 38/69/192
f 41/66/193 43/70/194 44/71/195
f 41/66/196 44/71/197 42/67/198
f 44/71/199 43/70/200 45/72/201
f 44/71/202 45/72/203 46/73/204
f 45/74/205 37/62/206 46/75/207
f 46/75/208 37/62/209 39/64/210
f 40/68/211 42/67/212 39/76/213
f 39/76/214 42/67/215 44/71/216
f 39/76/217 44/71/218 46/73/219
f 41/77/220 38/63/221 37/62/222
f 41/77/223 37/62/224 43/78/225
f 43/78/226 37/62/227 45/74/228
