# This file uses centimeters as units for non-parametric coordinates.

mtllib pz-fence.mtl
v -1.232185 -0.260085 34.755527
v -0.469618 32.793891 36.344913
v -5.079693 32.793891 36.344913
v -4.663750 -0.260085 34.755527
v -4.663750 0.006478 29.987876
v -1.232185 0.006478 29.987876
v -0.469618 33.060423 29.987876
v -5.079693 33.060423 29.987876
v 2.476658 23.730609 50.250461
v 2.476658 30.261412 50.250461
v -0.573610 30.261412 50.250461
v -0.573610 23.730609 50.250461
v -1.336177 23.597342 -50.665047
v 1.471460 23.597342 -50.665047
v 1.471460 28.795336 -50.665047
v -1.336177 28.795336 -50.665047
v 2.857954 12.934817 50.647868
v 2.857954 17.866223 50.647868
v -0.192314 17.866223 50.647868
v -0.192314 12.934817 50.647868
v -0.192314 11.735274 -50.267892
v 2.857954 11.735274 -50.267892
v 2.857954 18.266080 -50.267892
v -0.192314 18.266080 -50.267892
v -0.053675 0.139772 3.368508
v -0.053675 33.193568 3.368508
v -5.842260 33.193568 3.368508
v -5.842260 0.139772 3.368508
v -5.842260 0.139772 -2.988277
v -0.053675 0.139772 -2.988277
v -0.053675 33.193568 -2.988277
v -5.842260 33.193568 -2.988277
v 0.258302 -0.659914 -30.799878
v -0.712250 32.527098 -32.786172
v -5.183661 32.527098 -32.786172
v -5.980900 -0.659914 -30.799878
v -5.980900 -0.793208 -37.951226
v 0.258302 -0.793208 -37.951226
v -0.712250 32.393958 -37.951226
v -5.183661 32.393958 -37.951226
vt -0.402344 0.605469
vt -0.402344 0.031250
vt -0.753906 0.031250
vt -0.753906 0.605469
vt -0.953125 0.390625
vt -0.953125 0.039063
vt -0.601563 0.039063
vt -0.601563 0.390625
vt -0.949219 0.027344
vt -0.597656 0.031250
vt -0.609375 0.617188
vt -0.945313 0.617188
vt -0.945313 0.382813
vt -0.945313 0.031250
vt -0.593750 0.031250
vt -0.593750 0.382813
vt -0.832031 0.023438
vt -0.828125 0.605469
vt -0.480469 0.613281
vt -0.480469 0.023438
vt -0.945313 0.031250
vt -0.593750 0.027344
vt -0.609375 0.597656
vt -0.945313 0.031250
vt -0.953125 0.593750
vt -0.859375 0.777344
vt -0.859375 0.683594
vt -0.957031 0.683594
vt -0.957031 0.777344
vt -0.953125 0.929688
vt -0.945313 0.660156
vt -0.031250 0.652344
vt -0.031250 0.933594
vt -0.972656 0.660156
vt -0.039063 0.667969
vt -0.035156 0.898438
vt -0.972656 0.902344
vt -0.964844 0.843750
vt -0.968750 0.683594
vt -0.042969 0.679688
vt -0.042969 0.832031
vt -0.097656 0.664063
vt -0.101563 0.726563
vt -0.039063 0.726563
vt -0.039063 0.664063
vt -0.968750 0.667969
vt -0.054688 0.675781
vt -0.058594 0.890625
vt -0.968750 0.882813
vt -0.812500 0.828125
vt -0.812500 0.671875
vt -0.968750 0.671875
vt -0.968750 0.828125
vt -0.968750 0.945313
vt -0.968750 0.656250
vt -0.035156 0.652344
vt -0.035156 0.941406
vt -0.960938 0.656250
vt -0.031250 0.660156
vt -0.031250 0.929688
vt -0.957031 0.929688
vt -0.960938 0.941406
vt -0.957031 0.664063
vt -0.023438 0.656250
vt -0.027344 0.933594
vt -0.183594 0.656250
vt -0.183594 0.808594
vt -0.031250 0.808594
vt -0.031250 0.656250
vt -0.964844 0.660156
vt -0.031250 0.941406
vt -0.964844 0.929688
vt -0.031250 0.617188
vt -0.039063 0.039063
vt -0.390625 0.039063
vt -0.382813 0.617188
vt -0.738281 0.386719
vt -0.738281 0.035156
vt -0.476563 0.031250
vt -0.476563 0.382813
vt -0.859375 0.070313
vt -0.507813 0.070313
vt -0.515625 0.605469
vt -0.867188 0.605469
vt -0.714844 0.386719
vt -0.714844 0.035156
vt -0.453125 0.031250
vt -0.453125 0.382813
vt -0.390625 0.039063
vt -0.378906 0.613281
vt -0.027344 0.613281
vt -0.390625 0.039063
vt -0.039063 0.039063
vt -0.769531 0.039063
vt -0.417969 0.039063
vt -0.417969 0.605469
vt -0.769531 0.605469
vt -0.039063 0.390625
vt -0.089844 0.039063
vt -0.343750 0.039063
vt -0.390625 0.390625
vt -0.738281 0.394531
vt -0.738281 0.042969
vt -0.386719 0.042969
vt -0.386719 0.394531
vt -0.382813 0.039063
vt -0.035156 0.027344
vt -0.039063 0.386719
vt -0.390625 0.390625
vt -0.546875 0.375000
vt -0.546875 0.023438
vt -0.195313 0.023438
vt -0.195313 0.375000
vt -0.335938 0.039063
vt -0.390625 0.390625
vt -0.039063 0.390625
vt -0.039063 0.390625
vt -0.082031 0.039063
vt -0.296875 0.039063
vt -0.042969 0.039063
vt -0.039063 0.390625
vt -0.039063 0.390625
vt -0.390625 0.386719
vn 0.000000 -0.048029 0.998846
vn 0.000000 -0.048029 0.998846
vn 0.000000 -0.048029 0.998846
vn 0.000000 -0.048029 0.998846
vn 0.000000 -0.048029 0.998846
vn 0.000000 -0.048029 0.998846
vn 0.000000 -0.998441 -0.055823
vn 0.000000 -0.998441 -0.055823
vn 0.000000 -0.998441 -0.055823
vn 0.000000 -0.998441 -0.055823
vn 0.000000 -0.998441 -0.055823
vn 0.000000 -0.998441 -0.055823
vn 0.999735 -0.023018 -0.000965
vn 0.999735 -0.023018 -0.000965
vn 0.999735 -0.023018 -0.000965
vn 0.999733 -0.023064 -0.001290
vn 0.999733 -0.023064 -0.001290
vn 0.999733 -0.023064 -0.001290
vn 0.000000 0.999122 0.041891
vn 0.000000 0.999122 0.041891
vn 0.000000 0.999122 0.041891
vn 0.000000 0.999122 0.041891
vn 0.000000 0.999122 0.041891
vn 0.000000 0.999122 0.041891
vn 0.000000 0.000000 -1.000000
vn 0.000000 0.000000 -1.000000
vn 0.000000 0.000000 -1.000000
vn 0.000000 0.000000 -1.000000
vn 0.000000 0.000000 -1.000000
vn 0.000000 0.000000 -1.000000
vn -0.999921 -0.012583 -0.000528
vn -0.999921 -0.012583 -0.000528
vn -0.999921 -0.012583 -0.000528
vn -0.999921 -0.012549 -0.000702
vn -0.999921 -0.012549 -0.000702
vn -0.999921 -0.012549 -0.000702
vn 0.000000 -0.000000 1.000000
vn 0.000000 -0.000000 1.000000
vn 0.000000 -0.000000 1.000000
vn 0.000000 -0.000000 1.000000
vn 0.000000 -0.000000 1.000000
vn 0.000000 -0.000000 1.000000
vn 0.000000 -0.999999 0.001321
vn 0.000000 -0.999999 0.001321
vn 0.000000 -0.999999 0.001321
vn 0.000000 -0.999999 0.001321
vn 0.000000 -0.999999 0.001321
vn 0.000000 -0.999999 0.001321
vn 0.999950 0.000000 -0.009960
vn 0.999950 0.000000 -0.009960
vn 0.999950 0.000000 -0.009960
vn 0.999950 0.000000 -0.009960
vn 0.999950 0.000000 -0.009960
vn 0.999950 0.000000 -0.009960
vn 0.000000 0.999894 -0.014526
vn 0.000000 0.999894 -0.014526
vn 0.000000 0.999894 -0.014526
vn 0.000000 0.999894 -0.014526
vn 0.000000 0.999894 -0.014526
vn 0.000000 0.999894 -0.014526
vn 0.000000 0.000000 -1.000000
vn 0.000000 0.000000 -1.000000
vn 0.000000 0.000000 -1.000000
vn 0.000000 0.000000 -1.000000
vn 0.000000 0.000000 -1.000000
vn 0.000000 0.000000 -1.000000
vn -0.999971 0.000000 0.007556
vn -0.999971 0.000000 0.007556
vn -0.999971 0.000000 0.007556
vn -0.999971 0.000000 0.007556
vn -0.999971 0.000000 0.007556
vn -0.999971 0.000000 0.007556
vn 0.000000 -0.000000 1.000000
vn 0.000000 -0.000000 1.000000
vn 0.000000 -0.000000 1.000000
vn 0.000000 -0.000000 1.000000
vn 0.000000 -0.000000 1.000000
vn 0.000000 -0.000000 1.000000
vn 0.000000 -0.999929 0.011886
vn 0.000000 -0.999929 0.011886
vn 0.000000 -0.999929 0.011886
vn 0.000000 -0.999929 0.011886
vn 0.000000 -0.999929 0.011886
vn 0.000000 -0.999929 0.011886
vn 1.000000 0.000000 0.000000
vn 1.000000 0.000000 0.000000
vn 1.000000 0.000000 0.000000
vn 1.000000 0.000000 0.000000
vn 1.000000 0.000000 0.000000
vn 1.000000 0.000000 0.000000
vn 0.000000 0.999992 0.003962
vn 0.000000 0.999992 0.003962
vn 0.000000 0.999992 0.003962
vn 0.000000 0.999992 0.003962
vn 0.000000 0.999992 0.003962
vn 0.000000 0.999992 0.003962
vn 0.000000 0.000000 -1.000000
vn 0.000000 0.000000 -1.000000
vn 0.000000 0.000000 -1.000000
vn 0.000000 0.000000 -1.000000
vn 0.000000 0.000000 -1.000000
vn 0.000000 0.000000 -1.000000
vn -1.000000 0.000000 -0.000000
vn -1.000000 0.000000 -0.000000
vn -1.000000 0.000000 -0.000000
vn -1.000000 0.000000 0.000000
vn -1.000000 0.000000 0.000000
vn -1.000000 0.000000 0.000000
vn 0.000000 -0.000000 1.000000
vn 0.000000 -0.000000 1.000000
vn 0.000000 -0.000000 1.000000
vn 0.000000 -0.000000 1.000000
vn 0.000000 -0.000000 1.000000
vn 0.000000 -0.000000 1.000000
vn 0.000000 -1.000000 0.000000
vn 0.000000 -1.000000 0.000000
vn 0.000000 -1.000000 0.000000
vn 0.000000 -1.000000 0.000000
vn 0.000000 -1.000000 0.000000
vn 0.000000 -1.000000 0.000000
vn 1.000000 0.000000 0.000000
vn 1.000000 0.000000 0.000000
vn 1.000000 0.000000 0.000000
vn 1.000000 0.000000 0.000000
vn 1.000000 0.000000 0.000000
vn 1.000000 0.000000 0.000000
vn 0.000000 1.000000 0.000000
vn 0.000000 1.000000 0.000000
vn 0.000000 1.000000 0.000000
vn 0.000000 1.000000 0.000000
vn 0.000000 1.000000 0.000000
vn 0.000000 1.000000 0.000000
vn 0.000000 0.000000 -1.000000
vn 0.000000 0.000000 -1.000000
vn 0.000000 0.000000 -1.000000
vn 0.000000 0.000000 -1.000000
vn 0.000000 0.000000 -1.000000
vn 0.000000 0.000000 -1.000000
vn -1.000000 0.000000 -0.000000
vn -1.000000 0.000000 -0.000000
vn -1.000000 0.000000 -0.000000
vn -1.000000 0.000000 -0.000000
vn -1.000000 0.000000 -0.000000
vn -1.000000 0.000000 -0.000000
vn 0.000000 0.059745 0.998214
vn 0.000000 0.059745 0.998214
vn 0.000000 0.059745 0.998214
vn 0.000000 0.059745 0.998214
vn 0.000000 0.059745 0.998214
vn 0.000000 0.059745 0.998214
vn 0.000000 -0.999826 0.018636
vn 0.000000 -0.999826 0.018636
vn 0.000000 -0.999826 0.018636
vn 0.000000 -0.999826 0.018636
vn 0.000000 -0.999826 0.018636
vn 0.000000 -0.999826 0.018636
vn 0.999574 0.029187 -0.000752
vn 0.999574 0.029187 -0.000752
vn 0.999574 0.029187 -0.000752
vn 0.999573 0.029232 -0.000545
vn 0.999573 0.029232 -0.000545
vn 0.999573 0.029232 -0.000545
vn 0.000000 0.999668 -0.025769
vn 0.000000 0.999668 -0.025769
vn 0.000000 0.999668 -0.025769
vn 0.000000 0.999668 -0.025769
vn 0.000000 0.999668 -0.025769
vn 0.000000 0.999668 -0.025769
vn 0.000000 0.000000 -1.000000
vn 0.000000 0.000000 -1.000000
vn 0.000000 0.000000 -1.000000
vn 0.000000 0.000000 -1.000000
vn 0.000000 0.000000 -1.000000
vn 0.000000 0.000000 -1.000000
vn -0.999711 0.024016 -0.000619
vn -0.999711 0.024016 -0.000619
vn -0.999711 0.024016 -0.000619
vn -0.999712 0.023989 -0.000447
vn -0.999712 0.023989 -0.000447
vn -0.999712 0.023989 -0.000447
g pz_fence1:Mesh
usemtl pz_fence1:pz_fence
f 1/1/1 2/2/2 3/3/3
f 1/1/4 3/3/5 4/4/6
f 5/5/7 6/6/8 1/7/9
f 5/5/10 1/7/11 4/8/12
f 7/9/13 2/10/14 1/11/15
f 7/9/16 1/11/17 6/12/18
f 7/13/19 8/14/20 3/15/21
f 7/13/22 3/15/23 2/16/24
f 7/17/25 6/18/26 5/19/27
f 7/17/28 5/19/29 8/20/30
f 3/21/31 8/22/32 5/23/33
f 3/24/34 5/23/35 4/25/36
f 9/26/37 10/27/38 11/28/39
f 9/26/40 11/28/41 12/29/42
f 13/30/43 14/31/44 9/32/45
f 13/30/46 9/32/47 12/33/48
f 15/34/49 10/35/50 9/36/51
f 15/34/52 9/36/53 14/37/54
f 15/38/55 16/39/56 11/40/57
f 15/38/58 11/40/59 10/41/60
f 15/42/61 14/43/62 13/44/63
f 15/42/64 13/44/65 16/45/66
f 11/46/67 16/47/68 13/48/69
f 11/46/70 13/48/71 12/49/72
f 17/50/73 18/51/74 19/52/75
f 17/50/76 19/52/77 20/53/78
f 21/54/79 22/55/80 17/56/81
f 21/54/82 17/56/83 20/57/84
f 23/58/85 18/59/86 17/60/87
f 23/58/88 17/60/89 22/61/90
f 23/62/91 24/63/92 19/64/93
f 23/62/94 19/64/95 18/65/96
f 23/66/97 22/67/98 21/68/99
f 23/66/100 21/68/101 24/69/102
f 19/70/103 24/69/104 21/71/105
f 19/70/106 21/71/107 20/72/108
f 25/73/109 26/74/110 27/75/111
f 25/73/112 27/75/113 28/76/114
f 29/77/115 30/78/116 25/79/117
f 29/77/118 25/79/119 28/80/120
f 31/81/121 26/82/122 25/83/123
f 31/81/124 25/83/125 30/84/126
f 31/85/127 32/86/128 27/87/129
f 31/85/130 27/87/131 26/88/132
f 31/89/133 30/90/134 29/91/135
f 31/92/136 29/91/137 32/93/138
f 27/94/139 32/95/140 29/96/141
f 27/94/142 29/96/143 28/97/144
f 33/98/145 34/99/146 35/100/147
f 33/98/148 35/100/149 36/101/150
f 37/102/151 38/103/152 33/104/153
f 37/102/154 33/104/155 36/105/156
f 39/106/157 34/107/158 33/108/159
f 39/106/160 33/108/161 38/109/162
f 39/110/163 40/111/164 35/112/165
f 39/110/166 35/112/167 34/113/168
f 39/114/169 38/115/170 37/116/171
f 39/114/172 37/117/173 40/118/174
f 35/119/175 40/120/176 37/121/177
f 35/119/178 37/122/179 36/123/180
