# j.c. convert leaf file to obj
# Verts
v 0.200000 0.000000 1.588400
v 0.200000 1.680000 1.588400
v -0.200000 1.680000 1.588400
v -0.200000 0.000000 1.588400
v 0.200000 1.680000 -1.588400
v 0.200000 0.000000 -1.588400
v -0.200000 0.000000 -1.588400
v -0.200000 1.680000 -1.588400
# UVs
vt -0.500000 0.484375
vt -0.500000 0.007813
vt -0.746094 0.007813
vt -0.746094 0.484375
vt -0.992188 0.007813
vt -0.992188 0.484375
vt -0.250000 0.007813
vt -0.250000 0.484375
vt -0.003906 0.484375
vt -0.003906 0.007813
vt -0.496094 0.011719
vt -0.250000 0.011719
vt -0.250000 0.488281
vt -0.496094 0.488281
# Normals
vn 0.000000 -0.000000 1.000000
vn 1.000000 0.000000 -0.000000
vn 0.000000 -0.000000 -1.000000
vn -1.000000 0.000000 -0.000000
# Material
mtllib pz-gate-solid.mtl
usemtl pz-gate-solid
# Faces
f 1/1/1 2/2/1 3/3/1 
f 1/1/1 3/3/1 4/4/1 
f 5/5/2 2/3/2 1/4/2 
f 5/5/2 1/4/2 6/6/2 
f 5/7/3 6/8/3 7/9/3 
f 5/7/3 7/9/3 8/10/3 
f 3/11/4 8/12/4 7/13/4 
f 3/11/4 7/13/4 4/14/4 
