# j.c. saved from ObjMesh class
# points
v -0.509932 0.941920 -3.176383
v -0.509932 1.597308 -2.803022
v 0.997062 1.597308 -2.803022
v 0.997062 0.941920 -3.176383
v 0.997062 0.076807 -3.160826
v -0.509932 0.076807 -3.160826
v -0.509932 0.941920 -1.682941
v -0.509932 0.076807 -1.698498
v 0.997062 0.076807 -1.698498
v 0.997062 0.941920 -1.682941
v 0.997062 1.597308 -2.056301
v -0.509932 1.597308 -2.056301
v -0.509932 -0.106702 -3.689753
v -1.219105 -0.106702 -2.476332
v -1.219105 0.103022 -2.476332
v -0.509932 0.103022 -3.689753
v 0.908416 0.103022 -3.689753
v 0.908416 -0.106702 -3.689753
v 1.595428 -0.106702 -2.476332
v 1.617589 0.103022 -2.476332
v 0.908416 -0.106702 -1.247354
v 0.908416 0.103022 -1.247354
v -0.509932 0.103022 -1.247354
v -0.509932 -0.106702 -1.247354
# UVs
vt 0.000000 0.269531
vt 0.000000 0.003906
vt -0.480469 0.003906
vt -0.480469 0.269531
vt -0.480469 0.628906
vt 0.000000 0.628906
vt -0.480469 0.273438
vt -0.480469 0.636719
vt 0.000000 0.636719
vt 0.000000 0.273438
vt 0.000000 0.011719
vt -0.480469 0.011719
vt -0.480469 0.671875
vt 0.000000 0.671875
vt 0.000000 0.968750
vt -0.480469 0.968750
vt -0.503906 0.273438
vt -0.511719 0.636719
vt -0.625000 0.011719
vt -0.976563 0.636719
vt -0.984375 0.273438
vt -0.863281 0.011719
vt -0.976563 0.628906
vt -0.984375 0.269531
vt -0.863281 0.003906
vt -0.511719 0.628906
vt -0.625000 0.003906
vt -0.503906 0.269531
vt -0.976563 0.742188
vt -0.750000 0.664063
vt -0.976563 0.894531
vt -0.750000 0.968750
vt -0.750000 0.972656
vt -0.523438 0.894531
vt -0.523438 0.742188
# Normals
vn 0.000000 0.494993 -0.868897
vn 0.000000 -0.017980 -0.999838
vn 0.000000 -0.017980 0.999838
vn 0.000000 0.494992 0.868898
vn 0.000000 1.000000 0.000000
vn -1.000000 0.000000 0.000000
vn 1.000000 -0.000000 0.000000
vn -0.863362 0.000000 -0.504584
vn 0.000000 0.000000 -1.000000
vn 0.870205 0.000000 -0.492691
vn 0.859792 -0.090852 -0.502498
vn 0.869184 -0.091845 0.485884
vn 0.866141 -0.000000 0.499800
vn 0.000000 0.000000 1.000000
vn -0.866141 0.000000 0.499800
vn 0.000000 -1.000000 0.000000
g wm2.obj
mtllib wm2.mtl
usemtl wm2
# Faces
f 1/1/1 2/2/1 3/3/1 
f 1/1/1 3/3/1 4/4/1 
f 1/1/2 4/4/2 5/5/2 
f 1/1/2 5/5/2 6/6/2 
f 7/7/3 8/8/3 9/9/3 
f 7/7/3 9/9/3 10/10/3 
f 11/11/4 12/12/4 7/7/4 
f 11/11/4 7/7/4 10/10/4 
f 2/13/5 12/14/5 11/15/5 
f 2/13/5 11/15/5 3/16/5 
f 1/17/6 6/18/6 2/19/6 
f 2/19/6 6/18/6 8/20/6 
f 2/19/6 8/20/6 7/21/6 
f 2/19/6 7/21/6 12/22/6 
f 5/23/7 4/24/7 3/25/7 
f 5/23/7 3/25/7 9/26/7 
f 9/26/7 3/25/7 11/27/7 
f 9/26/7 11/27/7 10/28/7 
f 13/29/8 14/30/8 15/30/8 
f 13/29/8 15/30/8 16/29/8 
f 13/29/9 16/29/9 17/31/9 
f 13/29/9 17/31/9 18/31/9 
f 19/32/10 18/31/10 17/31/10 
f 19/32/11 17/31/11 20/33/11 
f 21/34/12 19/32/12 20/33/12 
f 21/34/13 20/33/13 22/34/13 
f 23/35/14 24/35/14 21/34/14 
f 23/35/14 21/34/14 22/34/14 
f 14/30/15 24/35/15 23/35/15 
f 14/30/15 23/35/15 15/30/15 
f 13/29/16 18/31/16 14/30/16 
f 14/30/16 18/31/16 19/32/16 
f 14/30/16 19/32/16 21/34/16 
f 14/30/16 21/34/16 24/35/16 
