# j.c. saved from ObjMesh class
# points
v 0.037675 0.840156 0.084395
v -0.111740 1.441128 0.022549
v 0.008622 1.447590 -0.050212
v 0.008622 1.460514 0.088033
v 0.552330 0.885390 -0.101144
v 0.357259 0.866004 -0.355806
v 0.548180 0.911238 -0.101144
v 0.357259 0.891852 -0.355806
v 0.041826 0.833694 -0.257579
v 0.041826 0.859542 -0.257579
v 0.041826 0.833694 0.058929
v 0.041826 0.859542 0.058929
v 0.357259 0.866004 0.157156
v 0.357259 0.891852 0.157156
v -0.016280 0.814308 0.084395
v -0.203050 0.866004 -0.170267
v -0.007979 0.833694 0.084395
v -0.194749 0.891852 -0.170267
v -0.506033 0.956472 -0.072040
v -0.497732 0.982320 -0.072040
v -0.506033 0.956472 0.244468
v -0.497732 0.982320 0.244468
v -0.203050 0.866004 0.342695
v -0.194749 0.891852 0.342695
v 0.016255 0.132876 -0.802265
v 0.270981 0.053003 -0.764093
v 0.098869 0.017131 -0.972593
v -0.183394 0.030008 -0.897747
v -0.183394 0.075538 -0.633112
v 0.098869 0.089335 -0.552920
v 0.145658 -0.231078 -1.002908
v 0.420976 -0.165360 -0.684806
v -0.306405 -0.206042 -0.881725
v -0.306405 -0.124155 -0.485362
v 0.145658 -0.099119 -0.364179
v 0.420976 -0.440354 -0.587368
v 0.145658 -0.550294 -0.869522
v -0.306405 -0.508412 -0.762034
v -0.306405 -0.371423 -0.410461
v 0.145658 -0.329541 -0.302973
v 0.098073 -0.731649 -0.516171
v 0.268022 -0.630554 -0.393755
v -0.180643 -0.695359 -0.472227
v -0.180643 -0.567046 -0.316853
v 0.098073 -0.528163 -0.269770
v 0.016498 -0.703864 -0.132896
# UVs
vt -0.121094 0.269531
vt -0.121094 0.039063
vt -0.082031 0.039063
vt -0.156250 0.039063
vt -0.050781 0.269531
vt -0.039063 0.039063
vt -0.457031 0.222656
vt -0.558594 0.144531
vt -0.457031 0.218750
vt -0.308594 0.199219
vt -0.339844 0.105469
vt -0.218750 0.199219
vt -0.191406 0.105469
vt -0.359375 0.144531
vt -0.519531 0.023438
vt -0.398438 0.023438
vt -0.265625 0.050781
vt -0.675781 0.035156
vt -0.761719 0.097656
vt -0.675781 0.031250
vt -0.761719 0.093750
vt -0.937500 0.015625
vt -0.937500 0.019531
vt -0.976563 0.132813
vt -0.976563 0.128906
vt -0.824219 0.015625
vt -0.824219 0.019531
vt -0.789063 0.128906
vt -0.789063 0.132813
vt -0.593750 0.097656
vt -0.593750 0.093750
vt -0.203125 0.296875
vt -0.203125 0.382813
vt -0.390625 0.382813
vt -0.687500 0.250000
vt -0.433594 0.382813
vt -0.593750 0.382813
vt -0.773438 0.382813
vt -0.921875 0.382813
vt -0.074219 0.382813
vt -0.390625 0.527344
vt -0.203125 0.527344
vt -0.539063 0.527344
vt -0.812500 0.527344
vt -0.984375 0.527344
vt -0.015625 0.527344
vt -0.203125 0.703125
vt -0.390625 0.703125
vt -0.539063 0.703125
vt -0.812500 0.703125
vt -0.984375 0.703125
vt -0.015625 0.703125
vt -0.375000 0.851563
vt -0.203125 0.851563
vt -0.414063 0.851563
vt -0.593750 0.851563
vt -0.773438 0.851563
vt -0.929688 0.851563
vt -0.078125 0.851563
vt -0.203125 0.964844
vt -0.679688 0.984375
# Normals
vn 0.138437 -0.975068 0.173427
vn -0.820159 0.570656 -0.041129
vn 0.299392 0.630475 -0.716146
vn 0.309341 0.751310 0.582960
vn 0.691824 -0.705840 0.152216
vn 0.510923 -0.320157 -0.797783
vn 0.532143 0.831854 -0.157612
vn 0.038410 0.368327 -0.928902
vn -0.655140 -0.544841 -0.523393
vn -0.562337 0.745592 -0.357588
vn -0.444405 -0.807363 0.388162
vn -0.712253 0.506489 0.485967
vn 0.111980 -0.365638 0.923996
vn 0.440755 0.414930 0.795970
vn 0.342770 -0.927651 0.148232
vn 0.336901 -0.519590 -0.785191
vn 0.828141 0.536196 -0.163331
vn 0.176529 0.330862 -0.927021
vn -0.808374 -0.300524 -0.506178
vn -0.254012 0.894874 -0.366986
vn -0.708014 -0.600480 0.371671
vn -0.496069 0.710393 0.499257
vn -0.031718 -0.378666 0.924990
vn 0.563049 0.183412 0.805814
vn -0.000793 0.980596 -0.196039
vn 0.590431 0.790422 -0.163169
vn 0.229724 0.456232 -0.859697
vn -0.500935 0.672833 -0.544390
vn -0.578358 0.804602 0.134602
vn 0.198082 0.849526 0.488947
vn 0.171416 -0.167722 -0.970817
vn 0.942267 0.269802 -0.198342
vn -0.753176 0.150607 -0.640346
vn -0.698530 0.421821 0.578033
vn 0.398033 0.453179 0.797620
vn 0.929961 -0.224191 0.291395
vn 0.400566 -0.591923 -0.699410
vn -0.764329 -0.521502 -0.379259
vn -0.648279 0.087256 0.756387
vn 0.160954 0.201206 0.966235
vn 0.212407 -0.947519 -0.238936
vn 0.796282 -0.400374 0.453470
vn -0.601021 -0.796429 0.066890
vn -0.764679 -0.072307 0.640342
vn 0.264139 0.308018 0.913978
vn -0.000207 -0.588646 0.808391
g fruit-stem.obj
mtllib fruit-stem.mtl
usemtl fruit-stem
# Faces
f 1/1/1 2/2/2 3/3/3 
f 1/1/1 4/4/4 2/2/2 
f 1/5/1 3/3/3 4/6/4 
f 2/2/2 4/4/4 3/3/3 
f 5/7/5 6/8/6 7/9/7 
f 7/9/7 6/8/6 8/8/8 
f 9/10/9 10/10/10 8/11/8 
f 9/10/9 8/11/8 6/11/6 
f 9/10/9 11/12/11 12/12/12 
f 9/10/9 12/12/12 10/10/10 
f 12/12/12 11/12/11 13/13/13 
f 12/12/12 13/13/13 14/13/14 
f 13/14/13 5/7/5 14/14/14 
f 14/14/14 5/7/5 7/9/7 
f 8/8/8 10/15/10 7/9/7 
f 7/9/7 10/15/10 12/16/12 
f 7/9/7 12/16/12 14/14/14 
f 9/10/9 6/11/6 5/17/5 
f 9/10/9 5/17/5 11/12/11 
f 11/12/11 5/17/5 13/13/13 
f 15/18/15 16/19/16 17/20/17 
f 17/20/17 16/19/16 18/21/18 
f 19/22/19 20/23/20 18/24/18 
f 19/22/19 18/24/18 16/25/16 
f 19/22/19 21/26/21 22/27/22 
f 19/22/19 22/27/22 20/23/20 
f 22/27/22 21/26/21 23/28/23 
f 22/27/22 23/28/23 24/29/24 
f 23/30/23 15/18/15 24/31/24 
g fruit3.obj
mtllib fruit3.mtl
usemtl fruit3
# Faces
f 25/32/25 26/33/26 27/34/27 
f 25/35/25 27/36/27 28/37/28 
f 25/35/25 28/37/28 29/38/29 
f 25/35/25 29/38/29 30/39/30 
f 25/32/25 30/40/30 26/33/26 
f 31/41/31 27/34/27 32/42/32 
f 32/42/32 27/34/27 26/33/26 
f 27/36/27 31/41/31 33/43/33 
f 27/36/27 33/43/33 28/37/28 
f 28/37/28 33/43/33 29/38/29 
f 29/38/29 33/43/33 34/44/34 
f 30/39/30 29/38/29 34/44/34 
f 30/39/30 34/44/34 35/45/35 
f 32/42/32 26/33/26 30/40/30 
f 32/42/32 30/40/30 35/46/35 
f 36/47/36 37/48/37 32/42/32 
f 32/42/32 37/48/37 31/41/31 
f 38/49/38 33/43/33 31/41/31 
f 38/49/38 31/41/31 37/48/37 
f 38/49/38 39/50/39 34/44/34 
f 38/49/38 34/44/34 33/43/33 
f 34/44/34 39/50/39 40/51/40 
f 34/44/34 40/51/40 35/45/35 
f 40/52/40 36/47/36 35/46/35 
f 35/46/35 36/47/36 32/42/32 
f 41/53/41 37/48/37 36/47/36 
f 41/53/41 36/47/36 42/54/42 
f 37/48/37 41/55/41 38/49/38 
f 38/49/38 41/55/41 43/56/43 
f 38/49/38 43/56/43 44/57/44 
f 38/49/38 44/57/44 39/50/39 
f 44/57/44 45/58/45 39/50/39 
f 39/50/39 45/58/45 40/51/40 
f 42/54/42 36/47/36 45/59/45 
f 45/59/45 36/47/36 40/52/40 
f 42/54/42 46/60/46 41/53/41 
f 41/55/41 46/61/46 43/56/43 
