# j.c. convert leaf file to obj
# Verts
v -0.229157 -0.021533 -4.121985
v -0.229157 0.490296 -2.793099
v -0.229157 0.589069 -2.957922
v -0.229157 0.741721 -3.153650
v -0.229157 0.849473 -3.225760
v -0.229157 1.038043 -3.277267
v -0.229157 1.208653 -4.111685
v -0.229157 1.208653 -3.885053
v -0.229157 1.217632 -3.256663
v -0.229157 1.352325 -3.184553
v -0.229157 1.361304 -3.627516
v -0.229157 1.433140 -3.060936
v -0.229157 1.639668 -3.421487
v -0.232541 -0.021533 -1.505418
v -0.232541 0.598049 -2.576768
v -0.232541 0.714782 -2.401643
v -0.232541 0.903352 -2.278026
v -0.232541 1.100900 -1.495116
v -0.232541 1.109879 -2.236821
v -0.232541 1.118859 -1.659940
v -0.232541 1.190694 -1.804160
v -0.232541 1.280488 -2.267725
v -0.232541 1.352325 -1.958682
v -0.232541 1.406201 -2.391343
v -0.232541 1.433140 -2.473753
v -0.232541 1.720482 -2.051394
v -0.232541 2.133538 -2.278026
v -0.229157 2.097620 -3.246362
v -0.229157 2.268231 -2.947621
v -0.232541 2.259251 -2.628275
v -0.232541 1.208653 -2.751893
v -0.232541 1.307428 -2.679782
v -0.229157 1.325387 -2.824002
v -0.232541 1.397222 -2.597370
v -0.229157 1.424160 -2.916716
v 0.031391 -0.021533 -4.121985
v 0.031391 -0.021533 -1.505418
v 0.031391 1.100900 -1.495116
v 0.031391 1.118859 -1.659940
v 0.031391 1.190694 -1.804160
v 0.031391 1.352325 -1.958682
v 0.031391 1.720482 -2.051394
v 0.031391 2.133538 -2.278026
v 0.031391 2.259251 -2.628275
v 0.031391 2.268231 -2.947621
v 0.031391 2.097620 -3.246362
v 0.031391 1.639668 -3.421487
v 0.031391 1.361304 -3.627516
v 0.031391 1.208653 -3.885053
v 0.031391 1.208653 -4.111685
v 0.031391 0.490296 -2.793099
v 0.031391 0.589069 -2.957922
v 0.031391 0.741721 -3.153650
v 0.031391 0.849473 -3.225760
v 0.031391 1.038043 -3.277267
v 0.031391 1.217632 -3.256663
v 0.031391 1.352325 -3.184553
v 0.031391 1.433140 -3.060936
v 0.031391 0.598049 -2.576768
v 0.031391 0.714782 -2.401643
v 0.031391 0.903352 -2.278026
v 0.031391 1.109879 -2.236821
v 0.031391 1.280488 -2.267725
v 0.031391 1.406201 -2.391343
v 0.031391 1.433140 -2.473753
v 0.031391 1.307428 -2.679782
v 0.031391 1.208653 -2.751893
v 0.031391 1.325387 -2.824002
v 0.031391 1.397222 -2.597370
v 0.031391 1.424160 -2.916716
# UVs
vt -0.023438 0.984375
vt -0.500000 0.777344
vt -0.441406 0.738281
vt -0.371094 0.675781
vt -0.343750 0.628906
vt -0.324219 0.550781
vt -0.027344 0.480469
vt -0.109375 0.480469
vt -0.332031 0.476563
vt -0.359375 0.425781
vt -0.203125 0.417969
vt -0.402344 0.390625
vt -0.273438 0.304688
vt -0.960938 0.988281
vt -0.574219 0.730469
vt -0.636719 0.683594
vt -0.683594 0.609375
vt -0.964844 0.527344
vt -0.699219 0.523438
vt -0.902344 0.519531
vt -0.851563 0.488281
vt -0.687500 0.453125
vt -0.796875 0.421875
vt -0.644531 0.402344
vt -0.613281 0.390625
vt -0.765625 0.273438
vt -0.683594 0.105469
vt -0.335938 0.117188
vt -0.445313 0.046875
vt -0.558594 0.050781
vt -0.515625 0.484375
vt -0.539063 0.441406
vt -0.488281 0.433594
vt -0.570313 0.406250
vt -0.453125 0.394531
vt -0.976563 0.976563
vt -0.976563 0.910156
vt -0.027344 0.910156
vt -0.027344 0.976563
vt -0.984375 0.214844
vt -0.984375 0.410156
vt -0.898438 0.410156
vt -0.898438 0.214844
vt -0.089844 0.980469
vt -0.089844 0.902344
vt -0.027344 0.980469
vt -0.031250 0.902344
vt -0.140625 0.980469
vt -0.140625 0.902344
vt -0.195313 0.902344
vt -0.195313 0.980469
vt -0.230469 0.902344
vt -0.230469 0.980469
vt -0.312500 0.902344
vt -0.312500 0.980469
vt -0.437500 0.980469
vt -0.437500 0.902344
vt -0.554688 0.980469
vt -0.554688 0.906250
vt -0.664063 0.980469
vt -0.664063 0.906250
vt -0.726563 0.906250
vt -0.726563 0.980469
vt -0.800781 0.906250
vt -0.800781 0.980469
vt -0.894531 0.980469
vt -0.894531 0.906250
vt -0.976563 0.980469
vt -0.976563 0.906250
vt -0.894531 0.406250
vt -0.894531 0.195313
vt -0.980469 0.195313
vt -0.980469 0.406250
vt -0.503906 0.765625
vt -0.980469 0.976563
vt -0.562500 0.726563
vt -0.632813 0.664063
vt -0.660156 0.617188
vt -0.679688 0.542969
vt -0.976563 0.472656
vt -0.894531 0.468750
vt -0.671875 0.468750
vt -0.644531 0.414063
vt -0.800781 0.406250
vt -0.601563 0.378906
vt -0.730469 0.292969
vt -0.042969 0.976563
vt -0.429688 0.722656
vt -0.367188 0.671875
vt -0.320313 0.597656
vt -0.039063 0.515625
vt -0.304688 0.511719
vt -0.101563 0.507813
vt -0.152344 0.476563
vt -0.316406 0.441406
vt -0.207031 0.414063
vt -0.359375 0.390625
vt -0.390625 0.378906
vt -0.238281 0.261719
vt -0.667969 0.109375
vt -0.320313 0.093750
vt -0.558594 0.039063
vt -0.445313 0.042969
vt -0.464844 0.429688
vt -0.488281 0.472656
vt -0.515625 0.421875
vt -0.433594 0.394531
vt -0.550781 0.382813
vt -0.347656 0.976563
vt -0.347656 0.910156
vt -0.304688 0.910156
vt -0.304688 0.976563
vt -0.292969 0.976563
vt -0.292969 0.910156
vt -0.296875 0.902344
vt -0.296875 0.980469
vt -0.378906 0.976563
vt -0.378906 0.910156
vt -0.421875 0.976563
vt -0.421875 0.910156
vt -0.359375 0.980469
vt -0.359375 0.902344
vt -0.453125 0.976563
vt -0.453125 0.910156
vt -0.480469 0.976563
vt -0.480469 0.910156
vt -0.421875 0.980469
vt -0.421875 0.902344
vt -0.503906 0.976563
vt -0.503906 0.910156
vt -0.539063 0.976563
vt -0.539063 0.910156
vt -0.496094 0.980469
vt -0.496094 0.906250
vt -0.593750 0.976563
vt -0.593750 0.910156
vt -0.558594 0.980469
vt -0.558594 0.906250
vt -0.636719 0.976563
vt -0.636719 0.910156
vt -0.628906 0.980469
vt -0.628906 0.906250
vt -0.664063 0.976563
vt -0.664063 0.910156
vt -0.656250 0.906250
vt -0.656250 0.980469
vt -0.675781 0.906250
vt -0.675781 0.980469
vt -0.671875 0.976563
vt -0.671875 0.910156
# Normals
vn -1.000000 0.000000 0.000000
vn -0.999994 0.003358 -0.001293
vn -0.999859 -0.014530 -0.008403
vn -1.000000 0.000000 0.000000
vn -0.999933 -0.010060 -0.005763
vn -0.998250 0.058416 0.009166
vn -0.999997 -0.000613 -0.002434
vn -0.999996 -0.001313 -0.002392
vn -0.999993 0.001356 -0.003545
vn -0.999972 0.006544 -0.003737
vn -0.999421 -0.032014 -0.011491
vn -0.999646 0.015697 -0.021501
vn -0.999592 0.019318 -0.021049
vn -0.999875 -0.010801 -0.011506
vn -0.999567 0.028252 -0.008209
vn -0.995728 -0.092160 -0.005738
vn 0.000000 -1.000000 0.000000
vn 0.000000 -0.009178 0.999958
vn 0.000000 0.994116 0.108318
vn 0.000000 0.895109 0.445847
vn 0.000000 0.691032 0.722824
vn 0.000000 0.244203 0.969724
vn 0.000000 0.481024 0.876707
vn 0.000000 0.941209 0.337824
vn 0.000000 0.999605 0.028108
vn 0.000000 0.999605 0.028108
vn 0.000000 0.868366 -0.495924
vn 0.000000 0.357183 -0.934034
vn 0.000000 0.594917 -0.803787
vn 0.000000 0.860238 -0.509893
vn 0.000000 1.000000 0.000000
vn 0.000000 0.008373 -0.999965
vn 1.000000 0.000000 0.000000
vn 1.000000 0.000000 0.000000
vn 0.000000 -0.701141 -0.713023
vn 0.000000 -0.178239 -0.983987
vn 0.000000 0.195658 -0.980672
vn 0.000000 -0.950504 -0.310711
vn 0.000000 -0.960285 0.279019
vn 0.000000 0.548247 -0.836317
vn 0.000000 -0.676174 0.736742
vn 0.000000 -0.589640 0.807666
vn 0.000000 0.832087 -0.554645
vn 0.000000 -0.525538 -0.850770
vn 0.000000 -0.525538 -0.850770
vn 0.000000 -0.684390 -0.729116
vn 0.000000 0.895109 -0.445848
vn 0.000000 0.895109 -0.445848
vn 0.000000 -0.998067 -0.062146
vn 0.000000 0.857770 0.514033
vn 0.000000 -0.837005 0.547195
vn 0.000000 0.788533 0.614992
vn 0.000000 -0.471984 0.881607
vn 0.000000 0.556169 0.831069
vn 0.000000 0.263493 0.964661
vn 0.000000 -0.113980 0.993483
# Material
mtllib gate2.mtl
usemtl gate2
# Faces
f 1/1/1 2/2/1 3/3/1 
f 1/1/1 3/3/1 4/4/1 
f 1/1/1 4/4/1 5/5/1 
f 1/1/1 5/5/1 6/6/1 
f 1/1/1 6/6/1 7/7/1 
f 7/7/1 6/6/1 8/8/1 
f 8/8/1 6/6/1 9/9/1 
f 8/8/1 9/9/1 10/10/1 
f 8/8/1 10/10/1 11/11/1 
f 11/11/1 10/10/1 12/12/1 
f 11/11/1 12/12/1 13/13/1 
f 1/1/2 14/14/2 2/2/2 
f 2/2/3 14/14/3 15/15/3 
f 15/15/1 14/14/1 16/16/1 
f 16/16/1 14/14/1 17/17/1 
f 17/17/1 14/14/1 18/18/1 
f 17/17/1 18/18/1 19/19/1 
f 19/19/1 18/18/1 20/20/1 
f 19/19/1 20/20/1 21/21/1 
f 19/19/1 21/21/1 22/22/1 
f 22/22/1 21/21/1 23/23/1 
f 22/22/4 23/23/4 24/24/4 
f 24/24/4 23/23/4 25/25/4 
f 12/12/5 25/25/5 13/13/5 
f 25/25/6 23/23/6 13/13/6 
f 13/13/7 23/23/7 26/26/7 
f 13/13/8 26/26/8 27/27/8 
f 13/13/9 27/27/9 28/28/9 
f 28/28/10 27/27/10 29/29/10 
f 29/29/11 27/27/11 30/30/11 
f 31/31/12 32/32/12 33/33/12 
f 33/33/13 32/32/13 34/34/13 
f 33/33/14 34/34/14 35/35/14 
f 35/35/15 34/34/15 25/25/15 
f 35/35/16 25/25/16 12/12/16 
f 1/36/17 36/37/17 37/38/17 
f 1/36/17 37/38/17 14/39/17 
f 18/40/18 14/41/18 37/42/18 
f 18/40/18 37/42/18 38/43/18 
f 39/44/19 20/45/19 38/46/19 
f 38/46/19 20/45/19 18/47/19 
f 40/48/20 21/49/20 39/44/20 
f 39/44/20 21/49/20 20/45/20 
f 23/50/21 21/49/21 40/48/21 
f 23/50/21 40/48/21 41/51/21 
f 26/52/22 23/50/22 41/51/22 
f 26/52/22 41/51/22 42/53/22 
f 27/54/23 26/52/23 42/53/23 
f 27/54/23 42/53/23 43/55/23 
f 44/56/24 30/57/24 43/55/24 
f 43/55/24 30/57/24 27/54/24 
f 45/58/25 29/59/25 44/56/25 
f 44/56/26 29/59/26 30/57/26 
f 46/60/27 28/61/27 29/59/27 
f 46/60/27 29/59/27 45/58/27 
f 13/62/28 28/61/28 46/60/28 
f 13/62/28 46/60/28 47/63/28 
f 11/64/29 13/62/29 47/63/29 
f 11/64/29 47/63/29 48/65/29 
f 49/66/30 8/67/30 11/64/30 
f 49/66/30 11/64/30 48/65/30 
f 50/68/31 7/69/31 8/67/31 
f 50/68/31 8/67/31 49/66/31 
f 1/70/32 7/71/32 50/72/32 
f 1/70/32 50/72/32 36/73/32 
f 51/74/33 36/75/33 52/76/33 
f 52/76/33 36/75/33 53/77/33 
f 53/77/34 36/75/34 54/78/34 
f 54/78/34 36/75/34 55/79/34 
f 55/79/34 36/75/34 50/80/34 
f 55/79/33 50/80/33 49/81/33 
f 55/79/34 49/81/34 56/82/34 
f 56/82/34 49/81/34 57/83/34 
f 57/83/34 49/81/34 48/84/34 
f 57/83/34 48/84/34 58/85/34 
f 58/85/34 48/84/34 47/86/34 
f 37/87/34 36/75/34 51/74/34 
f 37/87/34 51/74/34 59/88/34 
f 37/87/34 59/88/34 60/89/34 
f 37/87/34 60/89/34 61/90/34 
f 37/87/34 61/90/34 38/91/34 
f 38/91/34 61/90/34 62/92/34 
f 38/91/34 62/92/34 39/93/34 
f 39/93/34 62/92/34 40/94/34 
f 40/94/34 62/92/34 63/95/34 
f 40/94/34 63/95/34 41/96/34 
f 41/96/34 63/95/34 64/97/34 
f 41/96/34 64/97/34 65/98/34 
f 65/98/33 58/85/33 47/86/33 
f 41/96/34 65/98/34 47/86/34 
f 41/96/34 47/86/34 42/99/34 
f 42/99/33 47/86/33 46/100/33 
f 42/99/34 46/100/34 43/101/34 
f 43/101/34 46/100/34 45/102/34 
f 43/101/34 45/102/34 44/103/34 
f 66/104/34 67/105/34 68/106/34 
f 66/104/34 68/106/34 69/107/34 
f 69/107/33 68/106/33 70/108/33 
f 69/107/34 70/108/34 65/98/34 
f 65/98/34 70/108/34 58/85/34 
f 24/109/35 64/110/35 63/111/35 
f 24/109/35 63/111/35 22/112/35 
f 19/113/36 22/112/36 63/111/36 
f 19/113/36 63/111/36 62/114/36 
f 17/54/37 19/115/37 62/116/37 
f 17/54/37 62/116/37 61/55/37 
f 25/117/38 65/118/38 64/110/38 
f 25/117/38 64/110/38 24/109/38 
f 34/119/39 69/120/39 65/118/39 
f 34/119/39 65/118/39 25/117/39 
f 60/121/40 16/122/40 17/54/40 
f 60/121/40 17/54/40 61/55/40 
f 32/123/41 66/124/41 69/120/41 
f 32/123/41 69/120/41 34/119/41 
f 32/123/42 31/125/42 67/126/42 
f 32/123/42 67/126/42 66/124/42 
f 59/127/43 15/128/43 16/122/43 
f 59/127/43 16/122/43 60/121/43 
f 31/125/44 33/129/44 68/130/44 
f 31/125/45 68/130/45 67/126/45 
f 35/131/46 70/132/46 68/130/46 
f 35/131/46 68/130/46 33/129/46 
f 51/133/47 2/134/47 15/128/47 
f 51/133/48 15/128/48 59/127/48 
f 12/135/49 58/136/49 70/132/49 
f 12/135/49 70/132/49 35/131/49 
f 52/137/50 3/138/50 2/134/50 
f 52/137/50 2/134/50 51/133/50 
f 10/139/51 57/140/51 58/136/51 
f 10/139/51 58/136/51 12/135/51 
f 53/141/52 4/142/52 3/138/52 
f 53/141/52 3/138/52 52/137/52 
f 10/139/53 9/143/53 56/144/53 
f 10/139/53 56/144/53 57/140/53 
f 5/145/54 4/142/54 53/141/54 
f 5/145/54 53/141/54 54/146/54 
f 6/147/55 5/145/55 54/146/55 
f 6/147/55 54/146/55 55/148/55 
f 9/143/56 6/149/56 55/150/56 
f 9/143/56 55/150/56 56/144/56 
