# This file uses centimeters as units for non-parametric coordinates.

mtllib skybox.mtl
v -1000.000000 -1000.000000 1000.000000
v 1000.000000 -1000.000000 1000.000000
v -1000.000000 1000.000000 1000.000000
v 1000.000000 1000.000000 1000.000000
v -1000.000000 1000.000000 -1000.000000
v 1000.000000 1000.000000 -1000.000000
v -1000.000000 -1000.000000 -1000.000000
v 1000.000000 -1000.000000 -1000.000000
vt 0.246154 0.000621
vt 0.754038 0.000630
vt 0.753360 0.246674
vt 0.246403 0.246292
vt 0.753681 0.753491
vt 0.246507 0.753516
vt 0.753395 0.999941
vt 0.246655 0.999645
vt 0.999442 0.246712
vt 0.999653 0.753329
vt 0.000301 0.753326
vt 0.000576 0.246591
vn 0.000000 0.000000 1.000000
vn 0.000000 0.000000 1.000000
vn 0.000000 0.000000 1.000000
vn 0.000000 0.000000 1.000000
vn 0.000000 1.000000 0.000000
vn 0.000000 1.000000 0.000000
vn 0.000000 1.000000 0.000000
vn 0.000000 1.000000 0.000000
vn 0.000000 0.000000 -1.000000
vn 0.000000 0.000000 -1.000000
vn 0.000000 0.000000 -1.000000
vn 0.000000 0.000000 -1.000000
vn 1.000000 0.000000 0.000000
vn 1.000000 0.000000 0.000000
vn 1.000000 0.000000 0.000000
vn 1.000000 0.000000 0.000000
vn -1.000000 0.000000 0.000000
vn -1.000000 0.000000 0.000000
vn -1.000000 0.000000 0.000000
vn -1.000000 0.000000 0.000000
g pCube1
usemtl lambert2SG
f 1/1/1 2/2/2 3/4/3
f 2/2/2 4/3/4 3/4/3
f 3/4/5 4/3/6 5/6/7
f 4/3/6 6/5/8 5/6/7
f 5/6/9 6/5/10 7/8/11
f 6/5/10 8/7/12 7/8/11
f 2/9/13 8/10/14 4/3/15
f 8/10/14 6/5/16 4/3/15
f 7/11/17 1/12/18 5/6/19
f 1/12/18 3/4/20 5/6/19
