# This file uses centimeters as units for non-parametric coordinates.

mtllib skybox/skybox.mtl
g default
v -1000.000000 -1000.000000 1000.000000
v 1000.000000 -1000.000000 1000.000000
v -1000.000000 1000.000000 1000.000000
v 1000.000000 1000.000000 1000.000000
v -1000.000000 1000.000000 -1000.000000
v 1000.000000 1000.000000 -1000.000000
v -1000.000000 -1000.000000 -1000.000000
v 1000.000000 -1000.000000 -1000.000000
vt 0.001094 0.245052
vt 0.753588 -0.000590
vt 0.247751 0.243199
vt 0.990336 0.751851
vt 0.248364 0.756224
vt 0.753588 0.756224
vt 0.754200 1.000013
vt 0.754694 0.246511
vt 0.754694 0.751851
vt 0.248273 0.245052
vt 0.248273 0.756291
vt 0.990336 0.246511
vt 0.753588 0.243199
vt 0.754200 0.756224
vt 0.753588 0.243199
vt 0.248364 1.000013
vt 0.247751 0.756224
vt 0.247751 0.243199
vt 0.247751 -0.000590
vt 0.001094 0.756291
vn 0.000000 0.000000 -1.000000
vn 0.000000 0.000000 -1.000000
vn 0.000000 0.000000 -1.000000
vn 0.000000 0.000000 -1.000000
vn 0.000000 -1.000000 0.000000
vn 0.000000 -1.000000 0.000000
vn 0.000000 -1.000000 0.000000
vn 0.000000 -1.000000 0.000000
vn 0.000000 0.000000 1.000000
vn 0.000000 0.000000 1.000000
vn 0.000000 0.000000 1.000000
vn 0.000000 0.000000 1.000000
vn -1.000000 0.000000 0.000000
vn -1.000000 0.000000 0.000000
vn -1.000000 0.000000 0.000000
vn -1.000000 0.000000 0.000000
vn 1.000000 0.000000 0.000000
vn 1.000000 0.000000 0.000000
vn 1.000000 0.000000 0.000000
vn 1.000000 0.000000 0.000000
s 1
g pCube1
usemtl lambert2SG
f 1/19/1 3/18/2 2/2/3
f 2/2/3 3/18/2 4/13/4
s 2
f 3/3/5 5/17/6 4/15/7
f 4/15/7 5/17/6 6/6/8
s 3
f 5/5/9 7/16/10 6/14/11
f 6/14/11 7/16/10 8/7/12
s 4
f 2/12/13 4/4/14 8/8/15
f 8/8/15 4/4/14 6/9/16
s 5
f 7/10/17 5/11/18 1/1/19
f 1/1/19 5/11/18 3/20/20
