# This file uses centimeters as units for non-parametric coordinates.

mtllib skybox.mtl
g default
v -5.000000 -5.000000 5.000000
v 5.000000 -5.000000 5.000000
v -5.000000 5.000000 5.000000
v 5.000000 5.000000 5.000000
v -5.000000 5.000000 -5.000000
v 5.000000 5.000000 -5.000000
v -5.000000 -5.000000 -5.000000
v 5.000000 -5.000000 -5.000000
vt 0.001094 0.245052
vt 0.756378 -0.000590
vt 0.250541 0.243199
vt 0.994343 0.753854
vt 0.250541 0.756224
vt 0.756378 0.756224
vt 0.756378 1.000013
vt 0.758701 0.248514
vt 0.758701 0.753854
vt 0.248273 0.245052
vt 0.248273 0.756291
vt 0.994343 0.248514
vt 0.756378 0.243199
vt 0.756378 0.756224
vt 0.756378 0.243199
vt 0.250541 1.000013
vt 0.250541 0.756224
vt 0.250541 0.243199
vt 0.250541 -0.000590
vt 0.001094 0.756291
vn 0.000000 0.000000 1.000000
vn 0.000000 0.000000 1.000000
vn 0.000000 0.000000 1.000000
vn 0.000000 0.000000 1.000000
vn 0.000000 1.000000 0.000000
vn 0.000000 1.000000 0.000000
vn 0.000000 1.000000 0.000000
vn 0.000000 1.000000 0.000000
vn 0.000000 0.000000 -1.000000
vn 0.000000 0.000000 -1.000000
vn 0.000000 0.000000 -1.000000
vn 0.000000 0.000000 -1.000000
vn 1.000000 0.000000 0.000000
vn 1.000000 0.000000 0.000000
vn 1.000000 0.000000 0.000000
vn 1.000000 0.000000 0.000000
vn -1.000000 0.000000 0.000000
vn -1.000000 0.000000 0.000000
vn -1.000000 0.000000 0.000000
vn -1.000000 0.000000 0.000000
s off
g pCube1
usemtl lambert2SG
f 1/19/1 2/2/2 4/13/3 3/18/4
f 3/3/5 4/15/6 6/6/7 5/17/8
f 5/5/9 6/14/10 8/7/11 7/16/12
f 2/12/13 8/8/14 6/9/15 4/4/16
f 7/10/17 1/1/18 3/20/19 5/11/20
