# This file uses centimeters as units for non-parametric coordinates.

mtllib loc1.mtl
g default
v -620.941037 -0.552906 363.469696
v 626.341739 -0.552906 363.469696
v -620.941037 -0.552906 -411.184143
v 626.341739 -0.552906 -411.184143
vt -2.487846 2.055513
vt -2.487846 -1.544345
vt 2.976671 2.055513
vt 2.976671 -1.544345
vn 0.000000 1.000000 0.000000
vn 0.000000 1.000000 0.000000
vn 0.000000 1.000000 0.000000
vn 0.000000 1.000000 0.000000
vn 0.000000 1.000000 0.000000
vn 0.000000 1.000000 0.000000
s off
g loc1:pCube1
usemtl loc1:blinn1SG
f 3/1/1 1/2/2 4/3/3
f 4/3/4 1/2/5 2/4/6
g default
v 1.081981 0.000000 -412.657532
v 113.591377 0.000000 -412.657532
v 1.081981 0.000000 -524.616516
v 113.591377 0.000000 -524.616516
vt 0.000000 0.000000
vt 1.000000 0.000000
vt 0.000000 1.000506
vt 1.000000 0.998566
vn 0.000000 1.000000 0.000000
vn 0.000000 1.000000 0.000000
vn 0.000000 1.000000 0.000000
vn 0.000000 1.000000 0.000000
vn 0.000000 1.000000 0.000000
vn 0.000000 1.000000 0.000000
s off
g loc1:pPlane1
usemtl loc1:lambert4SG
f 5/5/7 6/6/8 7/7/9
f 7/7/10 6/6/11 8/8/12
g default
v -1138.402221 -0.000000 354.670250
v -626.603179 -0.000000 354.670250
v -1138.402221 0.000000 -237.862220
v -626.603179 0.000000 -237.862220
vt -0.705814 -0.497656
vt 1.569562 -0.497656
vt -0.705814 1.497656
vt 1.569562 1.497656
vn 0.000000 1.000000 0.000000
vn 0.000000 1.000000 0.000000
vn 0.000000 1.000000 0.000000
vn 0.000000 1.000000 0.000000
s 1
g pPlane1
usemtl lambert2SG
f 9/9/13 10/10/14 11/11/15
f 11/11/15 10/10/14 12/12/16
g default
v -1781.560150 -0.000000 166.752891
v -1142.174530 -0.000000 166.752891
v -1781.560150 0.000000 -450.233559
v -1142.174530 0.000000 -450.233559
vt -1.027468 -0.991474
vt 2.027468 -0.991474
vt -1.027468 1.956441
vt 2.027468 1.956441
vn 0.000000 1.000000 0.000000
vn 0.000000 1.000000 0.000000
vn 0.000000 1.000000 0.000000
vn 0.000000 1.000000 0.000000
s 1
g pPlane2
usemtl lambert3SG
f 13/13/17 14/14/18 15/15/19
f 15/15/19 14/14/18 16/16/20
g default
v 148.492846 -0.000000 368.951141
v -237.604749 -0.000000 373.783050
v -434.379865 -0.000000 586.419097
v -430.669446 -0.000000 834.670806
v -152.018751 -0.000000 934.776397
v 193.255419 -0.000000 923.925689
v 433.616259 -0.000000 675.265105
v 427.721850 -0.000000 475.209685
vt 0.111832 -0.392778
vt 1.096992 -0.392778
vt 1.605791 0.143413
vt 1.604251 0.776867
vt 0.896558 1.041152
vt 0.015353 1.024493
vt -0.605791 0.397788
vt -0.597140 -0.112778
vn 0.000000 1.000000 0.000000
vn 0.000000 1.000000 0.000000
vn 0.000000 1.000000 0.000000
vn 0.000000 1.000000 0.000000
vn 0.000000 1.000000 0.000000
vn 0.000000 1.000000 0.000000
vn 0.000000 1.000000 0.000000
vn 0.000000 1.000000 0.000000
s 1
g polySurface1
usemtl lambert4SG
f 20/20/21 21/21/22 19/19/23
f 19/19/23 21/21/22 18/18/24
f 18/18/24 21/21/22 17/17/25
f 21/21/22 22/22/26 17/17/25
f 22/22/26 23/23/27 17/17/25
f 17/17/25 23/23/27 24/24/28
g default
v -297.339731 1.198460 907.820834
v -683.437326 1.198460 912.652743
v -880.212442 1.198460 1125.288790
v -876.502023 1.198460 1373.540499
v -597.851327 1.198460 1473.646090
v -252.577157 1.198460 1462.795382
v -12.216318 1.198460 1214.134799
v -18.110727 1.198460 1014.079379
vt 0.111832 -0.392778
vt 1.096992 -0.392778
vt 1.605791 0.143413
vt 1.604251 0.776867
vt 0.896558 1.041152
vt 0.015353 1.024493
vt -0.605791 0.397788
vt -0.597140 -0.112778
vn 0.000000 1.000000 0.000000
vn 0.000000 1.000000 0.000000
vn 0.000000 1.000000 0.000000
vn 0.000000 1.000000 0.000000
vn 0.000000 1.000000 0.000000
vn 0.000000 1.000000 0.000000
vn 0.000000 1.000000 0.000000
vn 0.000000 1.000000 0.000000
s 1
g pasted__polySurface1 group
usemtl pasted__lambert4SG
f 28/28/29 29/29/30 27/27/31
f 27/27/31 29/29/30 26/26/32
f 26/26/32 29/29/30 25/25/33
f 29/29/30 30/30/34 25/25/33
f 30/30/34 31/31/35 25/25/33
f 25/25/33 31/31/35 32/32/36
g default
v -1644.574665 18.974877 196.999177
v -2030.672260 18.974877 201.831086
v -2227.447376 18.974877 414.467134
v -2223.736957 18.974877 662.718843
v -1945.086262 18.974877 762.824433
v -1599.812092 18.974877 751.973725
v -1359.451252 18.974877 503.313142
v -1365.345661 18.974877 303.257722
vt 0.111832 -0.392778
vt 1.096992 -0.392778
vt 1.605791 0.143413
vt 1.604251 0.776867
vt 0.896558 1.041152
vt 0.015353 1.024493
vt -0.605791 0.397788
vt -0.597140 -0.112778
vn 0.000000 1.000000 0.000000
vn 0.000000 1.000000 0.000000
vn 0.000000 1.000000 0.000000
vn 0.000000 1.000000 0.000000
vn 0.000000 1.000000 0.000000
vn 0.000000 1.000000 0.000000
vn 0.000000 1.000000 0.000000
vn 0.000000 1.000000 0.000000
s 1
g pasted__pasted__polySurface1 pasted__group group1
usemtl pasted__pasted__lambert4SG
f 36/36/37 37/37/38 35/35/39
f 35/35/39 37/37/38 34/34/40
f 34/34/40 37/37/38 33/33/41
f 37/37/38 38/38/42 33/33/41
f 38/38/42 39/39/43 33/33/41
f 33/33/41 39/39/43 40/40/44
g default
v -871.778010 13.382808 424.262722
v -1257.875605 13.382808 429.094632
v -1454.650721 13.382808 641.730679
v -1450.940302 13.382808 889.982388
v -1172.289607 13.382808 990.087979
v -827.015437 13.382808 979.237271
v -586.654597 13.382808 730.576687
v -592.549006 13.382808 530.521267
vt 0.111832 -0.392778
vt 1.096992 -0.392778
vt 1.605791 0.143413
vt 1.604251 0.776867
vt 0.896558 1.041152
vt 0.015353 1.024493
vt -0.605791 0.397788
vt -0.597140 -0.112778
vn 0.000000 1.000000 0.000000
vn 0.000000 1.000000 0.000000
vn 0.000000 1.000000 0.000000
vn 0.000000 1.000000 0.000000
vn 0.000000 1.000000 0.000000
vn 0.000000 1.000000 0.000000
vn 0.000000 1.000000 0.000000
vn 0.000000 1.000000 0.000000
s 1
g pasted__pasted__polySurface1 pasted__group group2
usemtl pasted__pasted__lambert4SG1
f 44/44/45 45/45/46 43/43/47
f 43/43/47 45/45/46 42/42/48
f 42/42/48 45/45/46 41/41/49
f 45/45/46 46/46/50 41/41/49
f 46/46/50 47/47/51 41/41/49
f 41/41/49 47/47/51 48/48/52
g default
v -1612.477492 1.799236 870.501974
v -1998.575087 1.799236 875.333884
v -2195.350203 1.799236 1087.969931
v -2191.639785 1.799236 1336.221640
v -1912.989089 1.799236 1436.327231
v -1567.714919 1.799236 1425.476523
v -1327.354079 1.799236 1176.815939
v -1333.248488 1.799236 976.760519
vt 0.111832 -0.392778
vt 1.096992 -0.392778
vt 1.605791 0.143413
vt 1.604251 0.776867
vt 0.896558 1.041152
vt 0.015353 1.024493
vt -0.605791 0.397788
vt -0.597140 -0.112778
vn 0.000000 1.000000 0.000000
vn 0.000000 1.000000 0.000000
vn 0.000000 1.000000 0.000000
vn 0.000000 1.000000 0.000000
vn 0.000000 1.000000 0.000000
vn 0.000000 1.000000 0.000000
vn 0.000000 1.000000 0.000000
vn 0.000000 1.000000 0.000000
s 1
g pasted__pasted__polySurface1 pasted__group group3
usemtl pasted__pasted__lambert4SG2
f 52/52/53 53/53/54 51/51/55
f 51/51/55 53/53/54 50/50/56
f 50/50/56 53/53/54 49/49/57
f 53/53/54 54/54/58 49/49/57
f 54/54/58 55/55/59 49/49/57
f 49/49/57 55/55/59 56/56/60
g default
v -660.884533 50.330409 -1021.619806
v -1046.982128 50.330409 -1016.787897
v -1243.757244 50.330409 -804.151849
v -1240.046826 50.330409 -555.900140
v -961.396130 50.330409 -455.794550
v -616.121960 50.330409 -466.645258
v -375.761120 50.330409 -715.305841
v -381.655529 50.330409 -915.361261
vt 0.005566 -1.314084
vt 1.260425 -1.314084
vt 1.908513 0.036301
vt 1.906552 1.631641
vt 1.005119 2.297235
vt -0.117325 2.255281
vt -0.908513 0.676940
vt -0.897495 -0.608910
vn 0.000000 1.000000 0.000000
vn 0.000000 1.000000 0.000000
vn 0.000000 1.000000 0.000000
vn 0.000000 1.000000 0.000000
vn 0.000000 1.000000 0.000000
vn 0.000000 1.000000 0.000000
vn 0.000000 1.000000 0.000000
vn 0.000000 1.000000 0.000000
s 1
g pasted__pasted__polySurface1 pasted__group group4
usemtl pasted__pasted__lambert4SG3
f 60/60/61 61/61/62 59/59/63
f 59/59/63 61/61/62 58/58/64
f 58/58/64 61/61/62 57/57/65
f 61/61/62 62/62/66 57/57/65
f 62/62/66 63/63/67 57/57/65
f 57/57/65 63/63/67 64/64/68
g default
v -148.004194 51.944933 -217.716581
v -242.120344 51.944933 -212.884672
v -239.957625 51.944933 89.496554
v -169.330183 51.440251 98.258029
vt 0.111832 -0.392778
vt 1.096992 -0.392778
vt 0.896558 1.041152
vt 0.015353 1.024493
vn 0.000000 1.000000 0.000000
vn 0.003445 0.999994 0.001031
vn 0.003445 0.999994 0.001031
vn 0.006890 0.999974 0.002062
s 1
g pasted__pasted__polySurface1 pasted__group group5
usemtl pasted__pasted__lambert4SG4
f 66/66/69 67/67/70 65/65/71
f 67/67/70 68/68/72 65/65/71
g default
v 427.638053 52.239884 -223.265513
v 333.521903 52.239884 -218.433604
v 335.684622 52.239884 83.947622
v 406.312064 51.735202 92.709096
vt 0.111832 -0.392778
vt 1.096992 -0.392778
vt 0.896558 1.041152
vt 0.015353 1.024493
vn 0.000000 1.000000 0.000000
vn 0.003445 0.999994 0.001031
vn 0.003445 0.999994 0.001031
vn 0.006890 0.999974 0.002062
s 1
g pasted__pasted__pasted__polySurface1 pasted__pasted__group pasted__group5 group6
usemtl pasted__pasted__pasted__lambert4SG4
f 70/70/73 71/71/74 69/69/75
f 71/71/74 72/72/76 69/69/75
