# This file uses centimeters as units for non-parametric coordinates.

mtllib loc1.mtl
v -16.617376 -0.919472 17.278826
v 16.593982 -0.919472 17.278826
v -16.617376 13.160318 17.278826
v 16.593982 13.160318 17.278826
v -16.617376 13.160318 -17.453083
v 16.593982 13.160318 -17.453083
v -16.617376 -0.919472 -17.453083
v 16.593982 -0.919472 -17.453083
vt 3.235837 6.357771
vt -1.514255 6.357771
vt -1.514255 -4.846732
vt 3.235837 -4.846732
vt 2.334033 4.707356
vt -1.035507 4.707356
vt -1.035507 -3.196319
vt 2.334033 -3.196319
vt -3.505048 4.176709
vt -3.505048 -3.665541
vt 3.993872 -3.665541
vt 3.993872 4.176709
vt 0.636861 4.979740
vt -3.193343 4.979740
vt -3.193343 -4.468573
vt 0.636861 -4.468573
vt 0.767875 -4.468573
vt 4.598080 -4.468573
vt 4.598080 4.979740
vt 0.767875 4.979740
vn 0.000000 0.000000 -1.000000
vn 0.000000 0.000000 -1.000000
vn 0.000000 0.000000 -1.000000
vn 0.000000 0.000000 -1.000000
vn 0.000000 0.000000 1.000000
vn 0.000000 0.000000 1.000000
vn 0.000000 0.000000 1.000000
vn 0.000000 0.000000 1.000000
vn 0.000000 1.000000 0.000000
vn 0.000000 1.000000 0.000000
vn 0.000000 1.000000 0.000000
vn 0.000000 1.000000 0.000000
vn -1.000000 0.000000 0.000000
vn -1.000000 0.000000 0.000000
vn -1.000000 0.000000 0.000000
vn -1.000000 0.000000 0.000000
vn 1.000000 0.000000 0.000000
vn 1.000000 0.000000 0.000000
vn 1.000000 0.000000 0.000000
vn 1.000000 0.000000 0.000000
g pCube1
usemtl blinn1SG
f 1/1/1 3/2/2 2/4/3
f 2/4/3 3/2/2 4/3/4
f 5/5/5 7/6/6 6/8/7
f 6/8/7 7/6/6 8/7/8
f 7/9/9 1/10/10 8/12/11
f 8/12/11 1/10/10 2/11/12
f 2/13/13 4/14/14 8/16/15
f 8/16/15 4/14/14 6/15/16
f 7/17/17 5/18/18 1/20/19
f 1/20/19 5/18/18 3/19/20
