# j.c. convert leaf file to obj
# Verts
v 1.488405 0.002574 -8.451838
v 1.488405 2.757403 -8.319262
v 1.488405 3.446110 -8.098298
v 1.488405 4.064181 -7.634275
v 1.488405 0.002574 -7.037674
v 1.488405 2.245287 -6.927193
v 1.488405 2.563152 -6.860904
v 1.488405 4.399705 -6.706230
v 1.488405 2.845700 -6.639941
v 1.488405 3.022292 -6.175919
v 1.488405 3.075269 -5.623510
v 1.488405 4.505661 -5.623510
v 1.488405 3.022292 -5.093199
v 1.488405 2.845700 -4.629177
v 1.488405 4.399705 -4.562887
v 1.488405 2.616130 -4.341924
v 1.488405 2.315923 -4.231443
v 1.488405 4.064181 -3.634842
v 1.488405 0.002574 -4.231443
v 1.488405 3.499089 -3.148724
v 1.488405 2.757403 -2.927760
v 1.488405 0.002574 -2.817279
# UVs
vt -0.984375 0.980469
vt -0.960938 0.546875
vt -0.925781 0.437500
vt -0.839844 0.339844
vt -0.738281 0.980469
vt -0.722656 0.628906
vt -0.707031 0.574219
vt -0.683594 0.289063
vt -0.667969 0.531250
vt -0.589844 0.503906
vt -0.496094 0.496094
vt -0.496094 0.269531
vt -0.402344 0.503906
vt -0.320313 0.531250
vt -0.308594 0.289063
vt -0.269531 0.570313
vt -0.250000 0.617188
vt -0.148438 0.339844
vt -0.250000 0.980469
vt -0.062500 0.429688
vt -0.023438 0.546875
vt -0.003906 0.980469
# Normals
vn 1.000000 0.000000 0.000000
vn 1.000000 0.000000 0.000000
vn 1.000000 0.000000 0.000000
vn 1.000000 0.000000 0.000000
vn 1.000000 0.000000 0.000000
vn 1.000000 0.000000 0.000000
vn 1.000000 0.000000 0.000000
vn 1.000000 0.000000 0.000000
vn 1.000000 0.000000 0.000000
vn 1.000000 0.000000 0.000000
vn 1.000000 0.000000 0.000000
vn 1.000000 0.000000 0.000000
vn 1.000000 0.000000 0.000000
vn 1.000000 0.000000 0.000000
vn 1.000000 0.000000 0.000000
vn 1.000000 0.000000 0.000000
vn 1.000000 0.000000 0.000000
vn 1.000000 0.000000 0.000000
vn 1.000000 0.000000 0.000000
vn 1.000000 0.000000 0.000000
vn 1.000000 0.000000 0.000000
vn 1.000000 0.000000 0.000000
# Material
mtllib arch2.mtl
usemtl arch2
# Faces
f 1/1/1 2/2/2 3/3/3 
f 1/1/1 3/3/3 4/4/4 
f 1/1/1 4/4/4 5/5/5 
f 5/5/5 4/4/4 6/6/6 
f 6/6/6 4/4/4 7/7/7 
f 7/7/7 4/4/4 8/8/8 
f 7/7/7 8/8/8 9/9/9 
f 9/9/9 8/8/8 10/10/10 
f 10/10/10 8/8/8 11/11/11 
f 11/11/11 8/8/8 12/12/12 
f 11/11/11 12/12/12 13/13/13 
f 13/13/13 12/12/12 14/14/14 
f 14/14/14 12/12/12 15/15/15 
f 14/14/14 15/15/15 16/16/16 
f 16/16/16 15/15/15 17/17/17 
f 17/17/17 15/15/15 18/18/18 
f 19/19/19 17/17/17 18/18/18 
f 19/19/19 18/18/18 20/20/20 
f 19/19/19 20/20/20 21/21/21 
f 19/19/19 21/21/21 22/22/22 
