# This file uses centimeters as units for non-parametric coordinates.

mtllib skybox/skybox.mtl
g default
v -50.000000 50.000000 50.000000
v 50.000000 50.000000 50.000000
v -50.000000 50.000000 -50.000000
v 50.000000 50.000000 -50.000000
v -50.000000 -50.000000 50.000000
v -50.000000 50.000000 50.000000
v -50.000000 50.000000 -50.000000
v -50.000000 -50.000000 -50.000000
v 50.000000 -50.000000 50.000000
v 50.000000 50.000000 50.000000
v 50.000000 50.000000 -50.000000
v 50.000000 -50.000000 -50.000000
v -50.000000 -50.000000 50.000000
v 50.000000 -50.000000 50.000000
v -50.000000 50.000000 50.000000
v 50.000000 50.000000 50.000000
v -50.000000 50.000000 -50.000000
v 50.000000 50.000000 -50.000000
v -50.000000 -50.000000 -50.000000
v 50.000000 -50.000000 -50.000000
vt 0 1 
vt 1 0
vt 1 1 
vt 0 0 
vt 1 0
vt 1 1 
vt 0 0  
vt 0 1 
vt 1 0
vt 1 1
vt 0 0
vt 0 1
vt 1 0
vt 1 1
vt 0 0
vt 0 1
vt 0 1
vt 0 0 
vt 1 1
vt 1 0
vn 0.000000 -1.000000 0.000000
vn 0.000000 -1.000000 0.000000
vn 0.000000 -1.000000 0.000000
vn 0.000000 -1.000000 0.000000
vn 1.000000 0.000000 0.000000
vn 1.000000 0.000000 0.000000
vn 1.000000 0.000000 0.000000
vn 1.000000 0.000000 0.000000
vn -1.000000 0.000000 0.000000
vn -1.000000 0.000000 0.000000
vn -1.000000 0.000000 0.000000
vn -1.000000 0.000000 0.000000
vn 0.000000 0.000000 -1.000000
vn 0.000000 0.000000 -1.000000
vn 0.000000 0.000000 -1.000000
vn 0.000000 0.000000 -1.000000
vn 0.000000 0.000000 1.000000
vn 0.000000 0.000000 1.000000
vn 0.000000 0.000000 1.000000
vn 0.000000 0.000000 1.000000
s 1
g polySurface1
usemtl lambert3SG
f 1/1/1 3/4/2 2/3/3
f 2/3/3 3/4/2 4/2/4
s 2
usemtl lambert6SG
f 8/5/5 7/6/6 5/7/7
f 5/7/7 7/6/6 6/8/8
s 3
usemtl lambert5SG
f 9/9/9 10/10/10 12/11/11
f 12/11/11 10/10/10 11/12/12
s 4
usemtl lambert7SG
f 13/13/13 15/14/14 14/15/15
f 14/15/15 15/14/14 16/16/16
s 5
usemtl lambert8SG
f 17/17/17 19/18/18 18/19/19
f 18/19/19 19/18/18 20/20/20
