# This file uses centimeters as units for non-parametric coordinates.

mtllib sf1.mtl
g default
v -25.534790 0.239329 73.404221
v 56.470097 0.239329 73.404221
v -25.534790 0.239329 -74.925819
v 56.470097 0.239329 -74.925819
vt -0.005799 0.000000
vt 0.228096 0.000000
vt -0.005799 1.000000
vt 0.228096 1.000000
vn 0.000000 1.000000 0.000000
vn 0.000000 1.000000 0.000000
vn 0.000000 1.000000 0.000000
vn 0.000000 1.000000 0.000000
vn 0.000000 1.000000 0.000000
vn 0.000000 1.000000 0.000000
s off
g tree4:pPlane1
usemtl tree4:lambert2SG
f 1/1/1 2/2/2 3/3/3
f 3/3/4 2/2/5 4/4/6
