# This file uses centimeters as units for non-parametric coordinates.

mtllib tree4.mtl
g default
v -36.525579 0.239329 73.404224
v 67.460886 0.239329 73.404224
v -36.525579 0.239329 -74.925820
v 67.460886 0.239329 -74.925820
vt 0.401031 0.000000
vt 0.634926 0.000000
vt 0.401031 1.000000
vt 0.634926 1.000000
vn 0.000000 1.000000 0.000000
vn 0.000000 1.000000 0.000000
vn 0.000000 1.000000 0.000000
vn 0.000000 1.000000 0.000000
s 1
g pPlane1
usemtl lambert2SG
f 1/1/1 2/2/2 3/3/3
f 3/3/3 2/2/2 4/4/4
