# This file uses centimeters as units for non-parametric coordinates.

mtllib tree2.mtl
g default
v -36.525579 0.239329 73.404224
v 36.240104 0.239329 73.404224
v -36.525579 0.239329 -74.925820
v 36.240104 0.239329 -74.925820
vt 0.141316 0.000000
vt 0.257018 0.000000
vt 0.141316 1.000000
vt 0.257018 1.000000
vn 0.000000 1.000000 0.000000
vn 0.000000 1.000000 0.000000
vn 0.000000 1.000000 0.000000
vn 0.000000 1.000000 0.000000
s 1
g pPlane1
usemtl lambert2SG
f 1/1/1 2/2/2 3/3/3
f 3/3/3 2/2/2 4/4/4
